<svg id="Layer_1" data-name="Layer 1" xmlns="http://www.w3.org/2000/svg" viewBox="0 0 320 180"><defs><style>.cls-1{fill:#646464;}.cls-2{fill:none;stroke:#ccc;stroke-miterlimit:10;}.cls-3{fill:#ccc;}</style></defs><circle class="cls-1" cx="49.9295" cy="110.9372" r="4.5129"/><circle class="cls-1" cx="93.0239" cy="63.1838" r="4.5129"/><circle class="cls-1" cx="234.63" cy="35.1121" r="4.5129"/><circle class="cls-1" cx="155.7225" cy="137.2948" r="4.5129"/><polygon class="cls-1" points="297.166 113.929 297.114 110.447 235.962 34.119 235.962 34.119 234.6 32.371 234.582 32.396 234.562 32.371 234.561 32.423 155.634 138.11 93.082 60.034 49.805 109.985 51.42 111.385 93.017 63.373 155.686 141.592 234.641 35.888 297.166 113.929"/><circle class="cls-1" cx="297.1664" cy="111.7908" r="4.5129"/><polyline class="cls-2" points="39.921 9.853 39.921 160.226 308.013 160.226"/><polygon class="cls-3" points="38.425 10.291 39.921 7.701 41.417 10.291 38.425 10.291"/><polygon class="cls-3" points="307.575 161.722 310.166 160.226 307.575 158.73 307.575 161.722"/><path d="M157.44,173.093a.7066.7066,0,0,1,.0908.205.1164.1164,0,0,1-.0381.12.3355.3355,0,0,1-.1728.0585,2.7509,2.7509,0,0,1-.3194.0147q-.1875,0-.2929-.0088a.6336.6336,0,0,1-.167-.0322.2645.2645,0,0,1-.0938-.0557.2785.2785,0,0,1-.0556-.0849l-1.6875-3.0176-1.7051,3.0176a.3938.3938,0,0,1-.0645.0878.2417.2417,0,0,1-.0967.0557.7421.7421,0,0,1-.1669.0293q-.1056.0088-.2813.0088a2.4548,2.4548,0,0,1-.3047-.0147.2686.2686,0,0,1-.1553-.0585.1262.1262,0,0,1-.0293-.12.7075.7075,0,0,1,.0909-.205l2.0683-3.4864-1.9746-3.3691a.9839.9839,0,0,1-.0908-.208.1166.1166,0,0,1,.0264-.1231.2818.2818,0,0,1,.164-.0556q.1173-.0117.3223-.0117.1758,0,.2871.0087a.8217.8217,0,0,1,.1758.0293.1846.1846,0,0,1,.0937.0586c.02.0254.041.0537.0645.085l1.6289,2.8359,1.6172-2.8359q.0293-.047.0586-.085a.1839.1839,0,0,1,.0849-.0586.6322.6322,0,0,1,.1553-.0293q.1-.0087.27-.0087a2.4083,2.4083,0,0,1,.2959.0146.3268.3268,0,0,1,.1641.0557.1214.1214,0,0,1,.0381.12.68.68,0,0,1-.082.208l-1.9688,3.3457Z"/><path d="M167.3835,169.5539a5.3084,5.3084,0,0,1-.2519,1.72,3.1231,3.1231,0,0,1-.7354,1.2188,3.0371,3.0371,0,0,1-1.1865.7236,5.2,5.2,0,0,1-1.6758.24h-1.6054a.4152.4152,0,0,1-.2549-.0908.3765.3765,0,0,1-.12-.3193v-6.7617a.3767.3767,0,0,1,.12-.3194.4158.4158,0,0,1,.2549-.0908h1.7168a4.763,4.763,0,0,1,1.664.2549,3.0348,3.0348,0,0,1,1.14.7324,3.13,3.13,0,0,1,.6972,1.1572A4.6405,4.6405,0,0,1,167.3835,169.5539Zm-1.06.041a4.1358,4.1358,0,0,0-.1523-1.1455,2.46,2.46,0,0,0-.4776-.917,2.2067,2.2067,0,0,0-.8232-.6035,3.2421,3.2421,0,0,0-1.2832-.2168h-1.0254v5.9h1.0371a3.6,3.6,0,0,0,1.2246-.1816,2.02,2.02,0,0,0,.832-.5567,2.421,2.421,0,0,0,.501-.94A4.7575,4.7575,0,0,0,166.323,169.5949Z"/><path d="M172.7976,173.3156a.1234.1234,0,0,1-.0469.1055.3287.3287,0,0,1-.1289.0527,1.23,1.23,0,0,1-.24.0176,1.337,1.337,0,0,1-.2432-.0176.2885.2885,0,0,1-.1318-.0527.1312.1312,0,0,1-.041-.1055v-.5273a2.6034,2.6034,0,0,1-.77.5742,2.043,2.043,0,0,1-.8994.2051,2.4531,2.4531,0,0,1-.753-.1084,1.63,1.63,0,0,1-.5742-.3135,1.4062,1.4062,0,0,1-.3691-.5039,1.6679,1.6679,0,0,1-.1319-.68,1.5719,1.5719,0,0,1,.1817-.7734,1.5106,1.5106,0,0,1,.5215-.545,2.5632,2.5632,0,0,1,.832-.3252,5.1707,5.1707,0,0,1,1.1074-.1084h.7266v-.41a2.0388,2.0388,0,0,0-.0645-.5391.9239.9239,0,0,0-.208-.39.8933.8933,0,0,0-.3721-.2344,1.735,1.735,0,0,0-.5625-.0791,2.2371,2.2371,0,0,0-.6416.085,3.4226,3.4226,0,0,0-.498.1875q-.2139.1025-.3574.1875a.4935.4935,0,0,1-.2139.0849.1445.1445,0,0,1-.082-.0234.2.2,0,0,1-.0616-.07.3644.3644,0,0,1-.038-.12,1.0139,1.0139,0,0,1-.0118-.1612,1.0341,1.0341,0,0,1,.02-.2314.335.335,0,0,1,.1-.1612,1.2783,1.2783,0,0,1,.2724-.1787,3.0108,3.0108,0,0,1,.4453-.1875,4.0483,4.0483,0,0,1,.5508-.1406,3.2894,3.2894,0,0,1,.6035-.0557,3.1639,3.1639,0,0,1,.9668.129,1.5639,1.5639,0,0,1,.6446.3779,1.4639,1.4639,0,0,1,.3574.6181,2.9946,2.9946,0,0,1,.1113.8614Zm-.9609-2.4082h-.8262a3.117,3.117,0,0,0-.6914.0674,1.4235,1.4235,0,0,0-.4863.1992.824.824,0,0,0-.2842.3164.95.95,0,0,0-.0908.4248.85.85,0,0,0,.2607.6533,1.0282,1.0282,0,0,0,.73.2432,1.3571,1.3571,0,0,0,.7061-.1933,3.0481,3.0481,0,0,0,.6826-.5918Z"/><path d="M177.2039,172.923a1.2288,1.2288,0,0,1-.0235.27.3017.3017,0,0,1-.07.1465.4587.4587,0,0,1-.1406.0878,1.1458,1.1458,0,0,1-.2139.0674q-.12.0264-.2549.044a2.0847,2.0847,0,0,1-.2695.0176,2.0321,2.0321,0,0,1-.7031-.1084,1.1368,1.1368,0,0,1-.4805-.3282,1.3528,1.3528,0,0,1-.2725-.5566,3.2769,3.2769,0,0,1-.0849-.794v-3.082h-.7383a.1579.1579,0,0,1-.1406-.0937.6537.6537,0,0,1-.0528-.3047,1.0105,1.0105,0,0,1,.0147-.1875.5405.5405,0,0,1,.0381-.126.1471.1471,0,0,1,.0615-.07.176.176,0,0,1,.085-.0205h.7324V166.63a.1481.1481,0,0,1,.02-.0762.168.168,0,0,1,.0762-.0615.5.5,0,0,1,.1494-.0381,1.9462,1.9462,0,0,1,.2344-.0117,2.0076,2.0076,0,0,1,.24.0117.4636.4636,0,0,1,.1465.0381.192.192,0,0,1,.0761.0615.134.134,0,0,1,.0235.0762v1.2539h1.3535a.16.16,0,0,1,.082.0205.17.17,0,0,1,.0616.07.402.402,0,0,1,.038.126,1.2491,1.2491,0,0,1,.0118.1875.6537.6537,0,0,1-.0528.3047.1579.1579,0,0,1-.1406.0937H175.657v2.9414a1.6767,1.6767,0,0,0,.1611.8233.61.61,0,0,0,.5772.2783.9926.9926,0,0,0,.24-.0264q.1054-.0264.1875-.0557t.1406-.0556a.2609.2609,0,0,1,.1055-.0264.1129.1129,0,0,1,.0557.0147.0977.0977,0,0,1,.041.0556.681.681,0,0,1,.0263.1114A1.0844,1.0844,0,0,1,177.2039,172.923Z"/><path d="M182.3074,173.3156a.1237.1237,0,0,1-.0469.1055.3293.3293,0,0,1-.1289.0527,1.2306,1.2306,0,0,1-.24.0176,1.3363,1.3363,0,0,1-.2432-.0176.288.288,0,0,1-.1318-.0527.1313.1313,0,0,1-.0411-.1055v-.5273a2.6022,2.6022,0,0,1-.77.5742,2.043,2.043,0,0,1-.8994.2051,2.4529,2.4529,0,0,1-.7529-.1084,1.63,1.63,0,0,1-.5742-.3135,1.4064,1.4064,0,0,1-.3692-.5039,1.6679,1.6679,0,0,1-.1318-.68,1.5718,1.5718,0,0,1,.1816-.7734,1.5115,1.5115,0,0,1,.5215-.545,2.5638,2.5638,0,0,1,.8321-.3252,5.17,5.17,0,0,1,1.1074-.1084h.7265v-.41a2.039,2.039,0,0,0-.0644-.5391.9239.9239,0,0,0-.208-.39.8939.8939,0,0,0-.3721-.2344,1.735,1.735,0,0,0-.5625-.0791,2.2366,2.2366,0,0,0-.6416.085,3.4137,3.4137,0,0,0-.498.1875q-.2139.1025-.3575.1875a.4937.4937,0,0,1-.2138.0849.1448.1448,0,0,1-.0821-.0234.2006.2006,0,0,1-.0615-.07.362.362,0,0,1-.0381-.12,1.2262,1.2262,0,0,1,.0088-.3926.3355.3355,0,0,1,.1-.1612,1.2823,1.2823,0,0,1,.2725-.1787,3.0063,3.0063,0,0,1,.4453-.1875,4.0483,4.0483,0,0,1,.5508-.1406,3.2894,3.2894,0,0,1,.6035-.0557,3.1639,3.1639,0,0,1,.9668.129,1.5635,1.5635,0,0,1,.6445.3779,1.4628,1.4628,0,0,1,.3574.6181,2.9909,2.9909,0,0,1,.1114.8614Zm-.961-2.4082H180.52a3.1164,3.1164,0,0,0-.6914.0674,1.4232,1.4232,0,0,0-.4864.1992.8248.8248,0,0,0-.2842.3164.9513.9513,0,0,0-.0908.4248.85.85,0,0,0,.2608.6533,1.0282,1.0282,0,0,0,.73.2432,1.3568,1.3568,0,0,0,.706-.1933,3.0437,3.0437,0,0,0,.6826-.5918Z"/><path d="M8.2343,84.8528v2.795a.1446.1446,0,0,1-.0235.082.1555.1555,0,0,1-.0815.0557.8837.8837,0,0,1-.1573.0351,1.97,1.97,0,0,1-.48,0,.9707.9707,0,0,1-.1572-.0351A.1564.1564,0,0,1,7.25,87.73a.1446.1446,0,0,1-.0235-.082v-2.795L5.0819,80.5755a.9527.9527,0,0,1-.0791-.2109.119.119,0,0,1,.0293-.1172.2764.2764,0,0,1,.1582-.0528q.1143-.0117.3076-.0117a2.7608,2.7608,0,0,1,.2842.0117.92.92,0,0,1,.1729.0323.203.203,0,0,1,.0966.0586.49.49,0,0,1,.0616.0966l1.0488,2.18q.1458.3106.2915.65t.2974.6856h.0117q.1332-.3341.2763-.6651t.2891-.6533L9.3827,80.388a.2965.2965,0,0,1,.05-.1.193.193,0,0,1,.0879-.0615.71.71,0,0,1,.1553-.0323,2.2268,2.2268,0,0,1,.2519-.0117,2.8836,2.8836,0,0,1,.3311.0147.3186.3186,0,0,1,.167.0556.1158.1158,0,0,1,.0322.1172.8612.8612,0,0,1-.0791.2051Z"/><path d="M20.2108,83.8978a5.3111,5.3111,0,0,1-.2519,1.72,3.1227,3.1227,0,0,1-.7354,1.2187,3.0387,3.0387,0,0,1-1.1865.7237,5.2034,5.2034,0,0,1-1.6758.24H14.7557a.4155.4155,0,0,1-.2548-.0908.3767.3767,0,0,1-.12-.3194V80.6282a.3765.3765,0,0,1,.12-.3193.4149.4149,0,0,1,.2548-.0908h1.7168a4.7608,4.7608,0,0,1,1.6641.2549,3.0332,3.0332,0,0,1,1.14.7324,3.1277,3.1277,0,0,1,.6973,1.1572A4.64,4.64,0,0,1,20.2108,83.8978Zm-1.06.041a4.1315,4.1315,0,0,0-.1524-1.1455,2.4589,2.4589,0,0,0-.4775-.917,2.2062,2.2062,0,0,0-.8233-.6035,3.24,3.24,0,0,0-1.2832-.2168H15.3885l0,5.9h1.0371a3.5983,3.5983,0,0,0,1.2246-.1817,2.02,2.02,0,0,0,.832-.5566,2.422,2.422,0,0,0,.501-.9405A4.7563,4.7563,0,0,0,19.15,83.9388Z"/><path d="M25.6249,87.66a.1231.1231,0,0,1-.0469.1054.3272.3272,0,0,1-.1289.0528,1.2306,1.2306,0,0,1-.24.0176,1.3363,1.3363,0,0,1-.2432-.0176.2873.2873,0,0,1-.1318-.0528.1309.1309,0,0,1-.0411-.1054v-.5274a2.6042,2.6042,0,0,1-.77.5743,2.0429,2.0429,0,0,1-.8994.205,2.45,2.45,0,0,1-.7529-.1084,1.6281,1.6281,0,0,1-.5742-.3134,1.4073,1.4073,0,0,1-.3692-.5039,1.6682,1.6682,0,0,1-.1318-.68,1.5725,1.5725,0,0,1,.1816-.7735,1.5112,1.5112,0,0,1,.5215-.5449,2.5638,2.5638,0,0,1,.8321-.3252,5.1636,5.1636,0,0,1,1.1074-.1084h.7265v-.41a2.0379,2.0379,0,0,0-.0644-.5391.9243.9243,0,0,0-.208-.39.8931.8931,0,0,0-.3721-.2343,1.7323,1.7323,0,0,0-.5625-.0791,2.24,2.24,0,0,0-.6416.0849,3.4414,3.4414,0,0,0-.498.1875q-.2139.1026-.3575.1875a.4929.4929,0,0,1-.2138.085.1441.1441,0,0,1-.0821-.0235.2.2,0,0,1-.0615-.07.3612.3612,0,0,1-.0381-.12,1.2262,1.2262,0,0,1,.0088-.3926.3357.3357,0,0,1,.1-.1611,1.2784,1.2784,0,0,1,.2725-.1787,2.9851,2.9851,0,0,1,.4453-.1875,4.0483,4.0483,0,0,1,.5508-.1406,3.2894,3.2894,0,0,1,.6035-.0557,3.1672,3.1672,0,0,1,.9668.1289,1.5646,1.5646,0,0,1,.6445.3779,1.4632,1.4632,0,0,1,.3574.6182,2.99,2.99,0,0,1,.1114.8613Zm-.961-2.4082h-.8261a3.11,3.11,0,0,0-.6914.0674,1.4241,1.4241,0,0,0-.4864.1992.823.823,0,0,0-.2841.3164.9493.9493,0,0,0-.0909.4248.85.85,0,0,0,.2608.6533,1.0286,1.0286,0,0,0,.73.2432,1.3569,1.3569,0,0,0,.706-.1934,3.0412,3.0412,0,0,0,.6826-.5918Z"/><path d="M30.0311,87.2669a1.2287,1.2287,0,0,1-.0234.2695.3021.3021,0,0,1-.07.1465.4581.4581,0,0,1-.1406.0879,1.1532,1.1532,0,0,1-.2139.0674q-.12.0264-.2549.0439a2.067,2.067,0,0,1-.27.0176,2.03,2.03,0,0,1-.7032-.1084,1.1363,1.1363,0,0,1-.48-.3281,1.3526,1.3526,0,0,1-.2725-.5567,3.276,3.276,0,0,1-.0849-.7939v-3.082h-.7383a.1583.1583,0,0,1-.1407-.0938.655.655,0,0,1-.0527-.3047,1.0105,1.0105,0,0,1,.0147-.1875.5366.5366,0,0,1,.038-.1259.148.148,0,0,1,.0616-.07.177.177,0,0,1,.0849-.02h.7325V80.9739a.148.148,0,0,1,.0205-.0761.1666.1666,0,0,1,.0761-.0616.5057.5057,0,0,1,.1494-.0381,1.9473,1.9473,0,0,1,.2344-.0117,2.0083,2.0083,0,0,1,.24.0117.4675.4675,0,0,1,.1464.0381.191.191,0,0,1,.0762.0616.1347.1347,0,0,1,.0235.0761v1.2539h1.3535a.16.16,0,0,1,.082.02.1714.1714,0,0,1,.0615.07.3994.3994,0,0,1,.0381.1259,1.2641,1.2641,0,0,1,.0117.1875.655.655,0,0,1-.0527.3047.1582.1582,0,0,1-.1406.0938H28.4843V85.972a1.676,1.676,0,0,0,.1611.8232.61.61,0,0,0,.5771.2783.9982.9982,0,0,0,.24-.0263q.1054-.0264.1875-.0557t.1406-.0557a.2622.2622,0,0,1,.1055-.0263.1135.1135,0,0,1,.0556.0146.0971.0971,0,0,1,.041.0557.6654.6654,0,0,1,.0264.1113A1.1,1.1,0,0,1,30.0311,87.2669Z"/><path d="M35.1346,87.66a.1234.1234,0,0,1-.0468.1054.3278.3278,0,0,1-.1289.0528,1.231,1.231,0,0,1-.24.0176,1.3358,1.3358,0,0,1-.2431-.0176.2878.2878,0,0,1-.1319-.0528.1313.1313,0,0,1-.041-.1054v-.5274a2.6034,2.6034,0,0,1-.77.5742,2.0416,2.0416,0,0,1-.8994.2051,2.4494,2.4494,0,0,1-.7529-.1084,1.6286,1.6286,0,0,1-.5743-.3134,1.4065,1.4065,0,0,1-.3691-.504,1.6674,1.6674,0,0,1-.1318-.68,1.5725,1.5725,0,0,1,.1816-.7735,1.51,1.51,0,0,1,.5215-.5449,2.5641,2.5641,0,0,1,.832-.3252,5.1643,5.1643,0,0,1,1.1074-.1084h.7266v-.41a2.0419,2.0419,0,0,0-.0644-.539.9245.9245,0,0,0-.2081-.39.8934.8934,0,0,0-.372-.2343,1.7332,1.7332,0,0,0-.5625-.0791,2.24,2.24,0,0,0-.6416.0849,3.4429,3.4429,0,0,0-.4981.1875q-.2139.1026-.3574.1875a.4927.4927,0,0,1-.2139.085.1438.1438,0,0,1-.082-.0235.2.2,0,0,1-.0615-.07.3612.3612,0,0,1-.0381-.12,1.2262,1.2262,0,0,1,.0088-.3926.3357.3357,0,0,1,.1-.1611A1.2731,1.2731,0,0,1,31.455,82.5a2.9851,2.9851,0,0,1,.4453-.1875,4.0429,4.0429,0,0,1,.5507-.1406,3.29,3.29,0,0,1,.6036-.0557,3.1676,3.1676,0,0,1,.9668.1289,1.5641,1.5641,0,0,1,.6445.3779,1.4632,1.4632,0,0,1,.3574.6182,2.9939,2.9939,0,0,1,.1113.8613Zm-.9609-2.4082h-.8262a3.111,3.111,0,0,0-.6914.0674,1.4235,1.4235,0,0,0-.4863.1992.8241.8241,0,0,0-.2842.3164.9507.9507,0,0,0-.0908.4248.85.85,0,0,0,.2607.6533,1.0288,1.0288,0,0,0,.7295.2432,1.3572,1.3572,0,0,0,.7061-.1934,3.0433,3.0433,0,0,0,.6826-.5918Z"/></svg>