<svg id="Layer_1" data-name="Layer 1" xmlns="http://www.w3.org/2000/svg" viewBox="0 0 320 180"><defs><style>.cls-1{fill:#646464;}.cls-2{fill:#999;}.cls-3,.cls-5{fill:none;stroke:#ccc;stroke-miterlimit:10;}.cls-4{fill:#ccc;}.cls-5{stroke-width:0.5px;}</style></defs><rect class="cls-1" x="62.7603" y="24.9062" width="27.9632" height="128.5604"/><rect class="cls-2" x="169.5649" y="107.0249" width="27.9632" height="46.4417"/><rect class="cls-2" x="240.8944" y="132.4869" width="27.9632" height="20.9797"/><rect class="cls-2" x="98.3088" y="77.0911" width="27.9632" height="76.3755"/><rect class="cls-1" x="205.3141" y="83.2297" width="27.9632" height="70.2369"/><rect class="cls-1" x="276.4064" y="119.7577" width="27.9632" height="33.709"/><rect class="cls-1" x="134.2882" y="60.1188" width="27.5872" height="93.3479"/><rect class="cls-2" x="27.2243" y="49.4375" width="27.5872" height="104.0291"/><path d="M171.1051,173.16a.7094.7094,0,0,1,.0908.205.1168.1168,0,0,1-.0381.12.336.336,0,0,1-.1729.0585,2.7478,2.7478,0,0,1-.3193.0147q-.1875,0-.293-.0088a.6345.6345,0,0,1-.167-.0322.2639.2639,0,0,1-.0937-.0557.28.28,0,0,1-.0557-.0849l-1.6875-3.0176-1.705,3.0176a.397.397,0,0,1-.0645.0878.2424.2424,0,0,1-.0967.0557.7431.7431,0,0,1-.167.0293q-.1054.0088-.2812.0088a2.4548,2.4548,0,0,1-.3047-.0147.2686.2686,0,0,1-.1553-.0585.1262.1262,0,0,1-.0293-.12.7094.7094,0,0,1,.0908-.205l2.0684-3.4864-1.9746-3.3691a.9787.9787,0,0,1-.0908-.208.1167.1167,0,0,1,.0263-.1231.2824.2824,0,0,1,.1641-.0556q.1172-.0117.3223-.0117.1758,0,.2871.0087a.8217.8217,0,0,1,.1758.0293.185.185,0,0,1,.0937.0586q.0292.0381.0645.085l1.6289,2.8359,1.6172-2.8359q.0292-.0469.0585-.085a.1847.1847,0,0,1,.085-.0586.6322.6322,0,0,1,.1553-.0293q.1-.0087.2695-.0087a2.4094,2.4094,0,0,1,.2959.0146.3268.3268,0,0,1,.1641.0557.1214.1214,0,0,1,.0381.12.6808.6808,0,0,1-.0821.208l-1.9687,3.3457Z"/><path d="M11.484,94.67v2.7949a.1448.1448,0,0,1-.0234.0821.1552.1552,0,0,1-.0816.0556.8724.8724,0,0,1-.1572.0352,1.9839,1.9839,0,0,1-.48,0,.9614.9614,0,0,1-.1572-.0352.1565.1565,0,0,1-.0845-.0556.1448.1448,0,0,1-.0234-.0821V94.67L8.3317,90.3926a.948.948,0,0,1-.0791-.211.1189.1189,0,0,1,.0293-.1171.2757.2757,0,0,1,.1582-.0528Q8.5543,90,8.7477,90a2.7608,2.7608,0,0,1,.2842.0117.9211.9211,0,0,1,.1728.0322.2042.2042,0,0,1,.0967.0586.4866.4866,0,0,1,.0615.0967l1.0488,2.18q.1458.31.2915.65t.2974.6855h.0117q.1334-.3339.2764-.665t.2891-.6533l1.0546-2.1914a.2985.2985,0,0,1,.05-.1.1931.1931,0,0,1,.0878-.0616.7125.7125,0,0,1,.1553-.0322A2.2287,2.2287,0,0,1,13.1774,90a2.909,2.909,0,0,1,.331.0146.3187.3187,0,0,1,.167.0557.1156.1156,0,0,1,.0322.1172.8584.8584,0,0,1-.0791.2051Z"/><polyline class="cls-3" points="19.377 11.38 19.377 160.595 308.175 160.595"/><polygon class="cls-4" points="17.882 11.818 19.377 9.227 20.873 11.818 17.882 11.818"/><polygon class="cls-4" points="307.737 162.091 310.328 160.595 307.737 159.099 307.737 162.091"/><polyline class="cls-5" points="147.788 63.055 151.126 48.383 156.096 48.383"/><path d="M162.6786,49.5877c0,.0361-.001.0684-.0034.0957a.3941.3941,0,0,1-.0122.0713.2134.2134,0,0,1-.022.0547.3033.3033,0,0,1-.0478.0576.97.97,0,0,1-.1436.1045,1.649,1.649,0,0,1-.272.1367,2.2642,2.2642,0,0,1-.372.1133,2.1809,2.1809,0,0,1-.46.0459,2.0136,2.0136,0,0,1-.7773-.1436,1.5745,1.5745,0,0,1-.5918-.4238,1.9405,1.9405,0,0,1-.376-.6924,3.4735,3.4735,0,0,1,.0107-1.93,2.1225,2.1225,0,0,1,.398-.7294,1.6985,1.6985,0,0,1,.6137-.4561,1.9456,1.9456,0,0,1,.7911-.1572,1.8763,1.8763,0,0,1,.3725.0361,2.37,2.37,0,0,1,.335.09,1.5664,1.5664,0,0,1,.2734.127.8793.8793,0,0,1,.1655.1182.3818.3818,0,0,1,.06.0693.2294.2294,0,0,1,.022.0566.4851.4851,0,0,1,.0136.0772.8383.8383,0,0,1,.0054.1064.85.85,0,0,1-.0068.1153.3619.3619,0,0,1-.02.081.1275.1275,0,0,1-.0327.0479.0754.0754,0,0,1-.0464.0156.2555.2555,0,0,1-.1343-.0674,2.2443,2.2443,0,0,0-.2217-.1465,1.8074,1.8074,0,0,0-.33-.1474,1.4528,1.4528,0,0,0-.4658-.0664,1.206,1.206,0,0,0-.5376.1181,1.1313,1.1313,0,0,0-.4141.3467,1.7087,1.7087,0,0,0-.2666.5586,3.0753,3.0753,0,0,0-.0034,1.4971,1.5476,1.5476,0,0,0,.2613.54,1.1,1.1,0,0,0,.4174.3281,1.35,1.35,0,0,0,.56.1114,1.4927,1.4927,0,0,0,.4624-.0645,1.8262,1.8262,0,0,0,.3364-.1455c.0928-.0537.169-.1025.2285-.1455a.2761.2761,0,0,1,.1411-.0645.078.078,0,0,1,.0411.01.0685.0685,0,0,1,.0278.0391.3713.3713,0,0,1,.0151.08C162.6767,49.492,162.6786,49.535,162.6786,49.5877Z"/><path d="M166.2538,48.5545a2.31,2.31,0,0,1-.0991.6924,1.5349,1.5349,0,0,1-.2954.5459,1.3414,1.3414,0,0,1-.4922.3564,1.7028,1.7028,0,0,1-.6856.128,1.7716,1.7716,0,0,1-.6611-.1123,1.2064,1.2064,0,0,1-.47-.3282,1.3847,1.3847,0,0,1-.28-.5224,2.427,2.427,0,0,1-.0923-.6973,2.3276,2.3276,0,0,1,.0977-.6924,1.5016,1.5016,0,0,1,.2939-.5459,1.3362,1.3362,0,0,1,.49-.3554,1.7318,1.7318,0,0,1,.687-.126,1.7985,1.7985,0,0,1,.6616.1123,1.2332,1.2332,0,0,1,.47.3281,1.4207,1.4207,0,0,1,.2822.5234A2.3778,2.3778,0,0,1,166.2538,48.5545Zm-.5845.0381a2.3186,2.3186,0,0,0-.0464-.4717,1.1566,1.1566,0,0,0-.1538-.39.7574.7574,0,0,0-.29-.2647.9546.9546,0,0,0-.4551-.0976.97.97,0,0,0-.4331.0888.7951.7951,0,0,0-.2983.251,1.13,1.13,0,0,0-.1744.3848,1.969,1.969,0,0,0-.0566.4853,2.3353,2.3353,0,0,0,.0464.4756,1.1269,1.1269,0,0,0,.1553.3877.7767.7767,0,0,0,.2915.2627.9538.9538,0,0,0,.455.0977.9707.9707,0,0,0,.4312-.0889.8032.8032,0,0,0,.3-.249,1.0942,1.0942,0,0,0,.1724-.3828A2.0434,2.0434,0,0,0,165.6693,48.5926Z"/><path d="M167.6483,50.1268a.0773.0773,0,0,1-.0136.0468.1045.1045,0,0,1-.0445.0323.3366.3366,0,0,1-.0854.02,1.1026,1.1026,0,0,1-.14.0068,1.07,1.07,0,0,1-.1367-.0068.3734.3734,0,0,1-.0874-.02.0888.0888,0,0,1-.0439-.0323.0834.0834,0,0,1-.0122-.0468V45.56a.0885.0885,0,0,1,.0122-.0469.092.092,0,0,1,.0439-.0352.3332.3332,0,0,1,.0874-.02,1.0473,1.0473,0,0,1,.1367-.0078,1.0771,1.0771,0,0,1,.14.0078.3028.3028,0,0,1,.0854.02.1084.1084,0,0,1,.0445.0352.0819.0819,0,0,1,.0136.0469Z"/><path d="M171.5517,48.5545a2.31,2.31,0,0,1-.0992.6924,1.5334,1.5334,0,0,1-.2954.5459,1.3406,1.3406,0,0,1-.4922.3564,1.702,1.702,0,0,1-.6855.128,1.7716,1.7716,0,0,1-.6611-.1123,1.2067,1.2067,0,0,1-.47-.3282,1.3846,1.3846,0,0,1-.28-.5224,2.4235,2.4235,0,0,1-.0923-.6973,2.3277,2.3277,0,0,1,.0976-.6924,1.5018,1.5018,0,0,1,.294-.5459,1.335,1.335,0,0,1,.49-.3554,1.7318,1.7318,0,0,1,.687-.126,1.7977,1.7977,0,0,1,.6616.1123,1.2335,1.2335,0,0,1,.47.3281,1.4222,1.4222,0,0,1,.2822.5234A2.3778,2.3778,0,0,1,171.5517,48.5545Zm-.5845.0381a2.3186,2.3186,0,0,0-.0464-.4717,1.1587,1.1587,0,0,0-.1538-.39.7576.7576,0,0,0-.29-.2647.9539.9539,0,0,0-.455-.0976.9711.9711,0,0,0-.4332.0888.7951.7951,0,0,0-.2983.251,1.1313,1.1313,0,0,0-.1743.3848,1.969,1.969,0,0,0-.0566.4853,2.3426,2.3426,0,0,0,.0463.4756,1.1289,1.1289,0,0,0,.1553.3877.7774.7774,0,0,0,.2915.2627.9545.9545,0,0,0,.4551.0977.97.97,0,0,0,.4311-.0889.8032.8032,0,0,0,.3-.249,1.0906,1.0906,0,0,0,.1724-.3828A2.0432,2.0432,0,0,0,170.9672,48.5926Z"/><path d="M174.18,47.2527c0,.05-.001.0928-.0034.126a.3252.3252,0,0,1-.0137.0811.1158.1158,0,0,1-.0254.0439.0575.0575,0,0,1-.043.0157.178.178,0,0,1-.0664-.0157c-.0264-.01-.0561-.0205-.0889-.03a1.0978,1.0978,0,0,0-.1113-.0293.6338.6338,0,0,0-.1333-.0137.4367.4367,0,0,0-.1675.0342.642.642,0,0,0-.1728.1132,1.3553,1.3553,0,0,0-.19.2081c-.0659.0869-.1391.1923-.2187.3173v2.0235a.0767.0767,0,0,1-.0137.0468.1041.1041,0,0,1-.0444.0323.3375.3375,0,0,1-.0855.02,1.1019,1.1019,0,0,1-.14.0068,1.0687,1.0687,0,0,1-.1367-.0068.3722.3722,0,0,1-.0874-.02.0892.0892,0,0,1-.044-.0323.0834.0834,0,0,1-.0122-.0468V47.0506a.0957.0957,0,0,1,.01-.0459.0932.0932,0,0,1,.041-.0342.26.26,0,0,1,.0786-.02c.0317-.0029.0742-.0049.1265-.0049.05,0,.0918.002.125.0049a.2215.2215,0,0,1,.0766.02.1169.1169,0,0,1,.04.0342.0868.0868,0,0,1,.0117.0459v.4482a2.4375,2.4375,0,0,1,.2373-.3007,1.315,1.315,0,0,1,.21-.1827.6465.6465,0,0,1,.1968-.0927.7878.7878,0,0,1,.1963-.0254c.03,0,.0635.0019.1006.0049a1.15,1.15,0,0,1,.23.05.2363.2363,0,0,1,.07.0341.1024.1024,0,0,1,.0274.0323.2629.2629,0,0,1,.0122.04.56.56,0,0,1,.0068.0693C174.18,47.159,174.18,47.2,174.18,47.2527Z"/><path d="M179.3856,48.9451a1.312,1.312,0,0,1-.0532.3838,1.1355,1.1355,0,0,1-.1484.3164,1.0926,1.0926,0,0,1-.2305.2461,1.3462,1.3462,0,0,1-.3047.1778,1.7037,1.7037,0,0,1-.3623.1074,2.3916,2.3916,0,0,1-.4424.0361h-1.1552a.2425.2425,0,0,1-.1485-.0527.22.22,0,0,1-.07-.1865V46.0291a.2194.2194,0,0,1,.07-.1865.2419.2419,0,0,1,.1485-.0527h1.0048a2.3394,2.3394,0,0,1,.6495.0752,1.1406,1.1406,0,0,1,.4218.2187.9019.9019,0,0,1,.2549.3516,1.2374,1.2374,0,0,1,.0855.4726,1.1919,1.1919,0,0,1-.0376.3008.9785.9785,0,0,1-.1114.2647.8838.8838,0,0,1-.1845.2167.9783.9783,0,0,1-.2544.1573,1.0582,1.0582,0,0,1,.3383.125,1.0291,1.0291,0,0,1,.2754.23,1.088,1.088,0,0,1,.1861.3282A1.2074,1.2074,0,0,1,179.3856,48.9451ZM178.5,46.9656a.8816.8816,0,0,0-.0445-.29.5354.5354,0,0,0-.14-.2207.6308.6308,0,0,0-.249-.1387,1.39,1.39,0,0,0-.4058-.0478h-.6069V47.701h.6684a.9432.9432,0,0,0,.3682-.0606.6588.6588,0,0,0,.2319-.16.6238.6238,0,0,0,.1348-.2363A.9217.9217,0,0,0,178.5,46.9656Zm.2666,2.0127a.89.89,0,0,0-.063-.3476.6584.6584,0,0,0-.1846-.2539.8084.8084,0,0,0-.3032-.1553,1.6831,1.6831,0,0,0-.459-.0527h-.7026v1.5586h.853a1.1505,1.1505,0,0,0,.3511-.0479.7937.7937,0,0,0,.2641-.1416.6467.6467,0,0,0,.1792-.2344A.7647.7647,0,0,0,178.767,48.9783Z"/><path d="M181.5458,50.2127l-.41,1.1309a.1542.1542,0,0,1-.104.084.8285.8285,0,0,1-.2549.0293.9509.9509,0,0,1-.1435-.0088.2034.2034,0,0,1-.084-.0284.0749.0749,0,0,1-.0322-.0546.1654.1654,0,0,1,.0171-.0821l.4238-1.07a.1577.1577,0,0,1-.0581-.0449.1668.1668,0,0,1-.0376-.0645l-1.0972-2.9394a.351.351,0,0,1-.0273-.1133.0814.0814,0,0,1,.0273-.0645.1758.1758,0,0,1,.0889-.0322,1.2226,1.2226,0,0,1,.1641-.0088c.0683,0,.122.002.1606.0049a.3714.3714,0,0,1,.0923.0186.1009.1009,0,0,1,.05.04.4709.4709,0,0,1,.0322.0693l.8784,2.4688h.01l.8476-2.4824a.1506.1506,0,0,1,.05-.083.2218.2218,0,0,1,.0869-.0274,1.2077,1.2077,0,0,1,.1674-.0088,1.1571,1.1571,0,0,1,.1573.0088.1851.1851,0,0,1,.09.0322.0784.0784,0,0,1,.0293.0645.3419.3419,0,0,1-.02.1035Z"/></svg>