<svg id="Layer_1" data-name="Layer 1" xmlns="http://www.w3.org/2000/svg" viewBox="0 0 320 180"><defs><style>.cls-1{fill:#878787;}.cls-2{fill:#646464;}.cls-3{fill:none;stroke:#ccc;stroke-miterlimit:10;}</style></defs><path class="cls-1" d="M195.7853,66.6011l21.6977-14.18a73.18,73.18,0,0,0-55.73-30.1445L161.724,48.132A47.4035,47.4035,0,0,1,195.7853,66.6011Z"/><path class="cls-2" d="M192.9087,127.7664,210.525,146.763A73.2086,73.2086,0,0,0,221.3886,58.38L199.7008,72.5536a47.4233,47.4233,0,0,1-6.7921,55.2128Z"/><path class="cls-2" d="M154.6273,22.2708a73.0254,73.0254,0,0,0-47.629,20.7748L125.8834,60.621a47.2969,47.2969,0,0,1,28.7154-12.4964Z"/><path class="cls-1" d="M161.7524,168.6859a72.9583,72.9583,0,0,0,43.5487-17.0769l-17.6123-18.9925a47.2567,47.2567,0,0,1-25.965,10.2119Z"/><path class="cls-1" d="M110.7541,91.9166a47.2562,47.2562,0,0,1,10.2711-26.0829L102.1478,48.2655A72.9546,72.9546,0,0,0,84.9826,91.9166Z"/><path class="cls-2" d="M110.7584,99.0418H84.98a73.2984,73.2984,0,0,0,69.6468,69.6439l-.0285-25.8533A47.4868,47.4868,0,0,1,110.7584,99.0418Z"/><path d="M217.3619,30.3233q0,.0938-.0058.164a.6779.6779,0,0,1-.02.1231.4113.4113,0,0,1-.0381.0937.5122.5122,0,0,1-.0821.1,1.6778,1.6778,0,0,1-.2461.1787,2.9391,2.9391,0,0,1-.4658.2344,3.8752,3.8752,0,0,1-.6387.1934,3.6785,3.6785,0,0,1-.788.0791,3.4573,3.4573,0,0,1-1.333-.2461,2.6924,2.6924,0,0,1-1.0137-.7266,3.3122,3.3122,0,0,1-.6445-1.1865,5.9547,5.9547,0,0,1,.0175-3.3076,3.6533,3.6533,0,0,1,.6826-1.251,2.9178,2.9178,0,0,1,1.0518-.7822,3.3307,3.3307,0,0,1,1.3565-.27,3.2717,3.2717,0,0,1,.6386.0616,4.0753,4.0753,0,0,1,.5742.1552,2.6092,2.6092,0,0,1,.4688.2168,1.5873,1.5873,0,0,1,.2842.2022.6807.6807,0,0,1,.1025.12.4013.4013,0,0,1,.0381.0967.94.94,0,0,1,.0234.1318,1.6035,1.6035,0,0,1,.0088.1817,1.44,1.44,0,0,1-.0117.1992.541.541,0,0,1-.0356.1377.2089.2089,0,0,1-.0557.082.122.122,0,0,1-.08.0264.4351.4351,0,0,1-.23-.1143,3.7634,3.7634,0,0,0-.38-.2519,3.0551,3.0551,0,0,0-.5654-.252,2.4659,2.4659,0,0,0-.7978-.1143,2.08,2.08,0,0,0-.9224.2022,1.9444,1.9444,0,0,0-.71.5947,2.92,2.92,0,0,0-.4565.958,5.2531,5.2531,0,0,0-.0059,2.5664,2.64,2.64,0,0,0,.4478.9258,1.8693,1.8693,0,0,0,.7153.5625,2.32,2.32,0,0,0,.96.19,2.5394,2.5394,0,0,0,.7919-.1113,3.0683,3.0683,0,0,0,.5772-.249,4.6075,4.6075,0,0,0,.3921-.249.47.47,0,0,1,.2412-.1114.135.135,0,0,1,.0708.0176.1251.1251,0,0,1,.0474.0674.6123.6123,0,0,1,.0263.1377Q217.362,30.1885,217.3619,30.3233Z"/><path d="M223.4908,28.5537a3.9488,3.9488,0,0,1-.17,1.1865,2.6176,2.6176,0,0,1-.5068.9346,2.2968,2.2968,0,0,1-.8438.6123,2.9316,2.9316,0,0,1-1.1748.22,3.0425,3.0425,0,0,1-1.1338-.1933,2.0712,2.0712,0,0,1-.8056-.5625,2.3831,2.3831,0,0,1-.4805-.8965,4.158,4.158,0,0,1-.1582-1.1953,4.0146,4.0146,0,0,1,.167-1.1865,2.5818,2.5818,0,0,1,.5039-.9346,2.2741,2.2741,0,0,1,.8408-.6094,2.9615,2.9615,0,0,1,1.1777-.2168,3.0421,3.0421,0,0,1,1.1338.1934,2.0708,2.0708,0,0,1,.8057.5625,2.4162,2.4162,0,0,1,.4834.8965A4.0661,4.0661,0,0,1,223.4908,28.5537Zm-1.0019.0645a3.9365,3.9365,0,0,0-.08-.8086,1.9882,1.9882,0,0,0-.2627-.668,1.3088,1.3088,0,0,0-.4971-.4541,1.6435,1.6435,0,0,0-.78-.167,1.67,1.67,0,0,0-.7422.1524,1.3648,1.3648,0,0,0-.5113.4306,1.9339,1.9339,0,0,0-.2983.6592,3.3549,3.3549,0,0,0-.0977.832,3.9326,3.9326,0,0,0,.08.8145,1.9128,1.9128,0,0,0,.2656.665,1.3432,1.3432,0,0,0,.5.4512,1.6467,1.6467,0,0,0,.7807.167,1.6737,1.6737,0,0,0,.7388-.1523,1.3671,1.3671,0,0,0,.5146-.4278,1.8612,1.8612,0,0,0,.2954-.6562A3.4774,3.4774,0,0,0,222.4889,28.6182Z"/><path d="M225.8815,31.249a.1308.1308,0,0,1-.0235.0791.1832.1832,0,0,1-.0762.0557.5384.5384,0,0,1-.1464.0352,2.0083,2.0083,0,0,1-.24.0117,1.9473,1.9473,0,0,1-.2344-.0117.5847.5847,0,0,1-.1494-.0352.16.16,0,0,1-.0761-.0557.1439.1439,0,0,1-.02-.0791V23.4209a.16.16,0,0,1,.02-.082.1515.1515,0,0,1,.0761-.0586.5805.5805,0,0,1,.1494-.0352,1.9473,1.9473,0,0,1,.2344-.0117,2.0083,2.0083,0,0,1,.24.0117.5347.5347,0,0,1,.1464.0352.1714.1714,0,0,1,.0762.0586.1446.1446,0,0,1,.0235.082Z"/><path d="M232.1861,31.249a.1439.1439,0,0,1-.02.0791.1607.1607,0,0,1-.0732.0557.5249.5249,0,0,1-.1377.0352,1.5592,1.5592,0,0,1-.208.0117,1.6685,1.6685,0,0,1-.22-.0117.48.48,0,0,1-.1348-.0352.1415.1415,0,0,1-.0674-.0557.1632.1632,0,0,1-.0176-.0791v-.6972a3.2823,3.2823,0,0,1-.8906.7265,1.9111,1.9111,0,0,1-.8906.2285,2.0139,2.0139,0,0,1-.8877-.1757,1.56,1.56,0,0,1-.583-.4776,1.93,1.93,0,0,1-.3194-.7031,4.2321,4.2321,0,0,1-.0966-.9756V25.9756a.1441.1441,0,0,1,.02-.0791.1766.1766,0,0,1,.0791-.0586.4865.4865,0,0,1,.1523-.0352q.0938-.0087.2344-.0087t.2344.0087a.4542.4542,0,0,1,.1494.0352.2032.2032,0,0,1,.0791.0586.1309.1309,0,0,1,.0234.0791v3.07a3.2688,3.2688,0,0,0,.0674.7412,1.3845,1.3845,0,0,0,.2051.4746.9506.9506,0,0,0,.3486.3047,1.0623,1.0623,0,0,0,.4922.1084,1.2367,1.2367,0,0,0,.7236-.2578,4.1081,4.1081,0,0,0,.7647-.7559V25.9756a.1441.1441,0,0,1,.02-.0791.1772.1772,0,0,1,.0791-.0586.4812.4812,0,0,1,.1494-.0352q.0909-.0087.2373-.0087.1407,0,.2344.0087a.4237.4237,0,0,1,.1465.0352.2391.2391,0,0,1,.0791.0586.1211.1211,0,0,1,.0263.0791Z"/><path d="M241.7955,31.249a.1307.1307,0,0,1-.0234.0791.1832.1832,0,0,1-.0762.0557.54.54,0,0,1-.1465.0352,1.9462,1.9462,0,0,1-.2344.0117,2.0076,2.0076,0,0,1-.24-.0117.5847.5847,0,0,1-.1494-.0352.1825.1825,0,0,1-.0791-.0557.1307.1307,0,0,1-.0234-.0791V28.044a2.9378,2.9378,0,0,0-.0586-.6094,1.4047,1.4047,0,0,0-.1875-.4746.8747.8747,0,0,0-.3282-.3047.988.988,0,0,0-.4687-.1055,1.1038,1.1038,0,0,0-.6709.2578,4.6336,4.6336,0,0,0-.7412.7559V31.249a.13.13,0,0,1-.0235.0791.1825.1825,0,0,1-.0791.0557.5847.5847,0,0,1-.1494.0352,2.3238,2.3238,0,0,1-.4658,0,.5908.5908,0,0,1-.1523-.0352.1611.1611,0,0,1-.0762-.0557.1439.1439,0,0,1-.02-.0791V28.044a2.6744,2.6744,0,0,0-.0645-.6094,1.4921,1.4921,0,0,0-.1933-.4746.8824.8824,0,0,0-.3252-.3047.9711.9711,0,0,0-.4658-.1055,1.1161,1.1161,0,0,0-.6739.2578,4.4108,4.4108,0,0,0-.7383.7559V31.249a.1307.1307,0,0,1-.0234.0791.1832.1832,0,0,1-.0762.0557.5384.5384,0,0,1-.1464.0352,2.0083,2.0083,0,0,1-.24.0117,1.9473,1.9473,0,0,1-.2344-.0117.5847.5847,0,0,1-.1494-.0352.16.16,0,0,1-.0761-.0557.1439.1439,0,0,1-.0206-.0791V25.9756a.1634.1634,0,0,1,.0176-.0791.1563.1563,0,0,1,.07-.0586.3984.3984,0,0,1,.1348-.0352,2.1485,2.1485,0,0,1,.2168-.0087q.1289,0,.2139.0087a.346.346,0,0,1,.1318.0352.1848.1848,0,0,1,.0674.0586.1441.1441,0,0,1,.0205.0791v.6973a3.4233,3.4233,0,0,1,.8643-.7295,1.7341,1.7341,0,0,1,.8466-.2315,2.0988,2.0988,0,0,1,.5889.0762,1.5851,1.5851,0,0,1,.46.2139,1.4269,1.4269,0,0,1,.34.3281,1.8931,1.8931,0,0,1,.2344.4248,5.4423,5.4423,0,0,1,.501-.4863,2.9964,2.9964,0,0,1,.457-.3223,1.8683,1.8683,0,0,1,.4277-.1787,1.6147,1.6147,0,0,1,.419-.0557,1.849,1.849,0,0,1,.8554.1787,1.5518,1.5518,0,0,1,.56.4776,1.9143,1.9143,0,0,1,.3047.7,3.83,3.83,0,0,1,.0908.8467Z"/><path d="M248.1,31.249a.1307.1307,0,0,1-.0234.0791.1846.1846,0,0,1-.0762.0557.54.54,0,0,1-.1465.0352,1.9462,1.9462,0,0,1-.2344.0117,2.0076,2.0076,0,0,1-.24-.0117.54.54,0,0,1-.1465-.0352.1846.1846,0,0,1-.0762-.0557.1307.1307,0,0,1-.0234-.0791V28.1611a3.0344,3.0344,0,0,0-.07-.7265,1.5029,1.5029,0,0,0-.2051-.4746.8888.8888,0,0,0-.3486-.3047,1.1062,1.1062,0,0,0-.4951-.1055,1.25,1.25,0,0,0-.7266.2578,3.9371,3.9371,0,0,0-.7617.7559V31.249a.13.13,0,0,1-.0235.0791.1835.1835,0,0,1-.0761.0557.54.54,0,0,1-.1465.0352,2.0076,2.0076,0,0,1-.24.0117,1.9462,1.9462,0,0,1-.2344-.0117.5847.5847,0,0,1-.1494-.0352.1611.1611,0,0,1-.0762-.0557.1439.1439,0,0,1-.02-.0791V25.9756a.1623.1623,0,0,1,.0176-.0791.1557.1557,0,0,1,.07-.0586.3978.3978,0,0,1,.1347-.0352,2.1485,2.1485,0,0,1,.2168-.0087q.129,0,.2139.0087a.346.346,0,0,1,.1318.0352.1839.1839,0,0,1,.0674.0586.1441.1441,0,0,1,.02.0791v.6973a3.2412,3.2412,0,0,1,.8877-.7295,1.91,1.91,0,0,1,.8936-.2315,1.9869,1.9869,0,0,1,.8877.1787,1.6,1.6,0,0,1,.583.4776,1.9019,1.9019,0,0,1,.3193.7,4.164,4.164,0,0,1,.0967.9638Z"/><path d="M258.5182,27.4932a5.3083,5.3083,0,0,1-.252,1.72,3.1248,3.1248,0,0,1-.7353,1.2188,3.0394,3.0394,0,0,1-1.1866.7236,5.2023,5.2023,0,0,1-1.6757.24h-1.6055a.4158.4158,0,0,1-.2549-.0908.3765.3765,0,0,1-.12-.3193V24.2236a.3766.3766,0,0,1,.12-.3193.4158.4158,0,0,1,.2549-.0908H254.78a4.7616,4.7616,0,0,1,1.6641.2549,3.0332,3.0332,0,0,1,1.14.7324,3.13,3.13,0,0,1,.6973,1.1572A4.64,4.64,0,0,1,258.5182,27.4932Zm-1.0606.041a4.1353,4.1353,0,0,0-.1523-1.1455,2.46,2.46,0,0,0-.4776-.917,2.2067,2.2067,0,0,0-.8232-.6035,3.24,3.24,0,0,0-1.2832-.2168h-1.0254v5.9h1.0371a3.5975,3.5975,0,0,0,1.2246-.1817,2.02,2.02,0,0,0,.8321-.5566,2.4222,2.4222,0,0,0,.5009-.94A4.7539,4.7539,0,0,0,257.4576,27.5342Z"/><path d="M263.9322,31.2549a.1236.1236,0,0,1-.0468.1055.33.33,0,0,1-.1289.0527,1.231,1.231,0,0,1-.24.0176,1.3358,1.3358,0,0,1-.2431-.0176.2889.2889,0,0,1-.1319-.0527.1315.1315,0,0,1-.041-.1055v-.5273a2.6052,2.6052,0,0,1-.77.5742,2.0429,2.0429,0,0,1-.8994.205,2.4505,2.4505,0,0,1-.753-.1084,1.6281,1.6281,0,0,1-.5742-.3134,1.4062,1.4062,0,0,1-.3691-.5039,1.6682,1.6682,0,0,1-.1318-.68,1.5725,1.5725,0,0,1,.1816-.7735,1.5112,1.5112,0,0,1,.5215-.5449,2.5632,2.5632,0,0,1,.832-.3252,5.1707,5.1707,0,0,1,1.1074-.1084h.7266v-.41a2.0383,2.0383,0,0,0-.0645-.5391.9228.9228,0,0,0-.208-.39.8926.8926,0,0,0-.372-.2344,1.7332,1.7332,0,0,0-.5625-.0791,2.24,2.24,0,0,0-.6416.0849,3.4429,3.4429,0,0,0-.4981.1875q-.2139.1026-.3574.1875a.4927.4927,0,0,1-.2139.085.1445.1445,0,0,1-.082-.0234.2005.2005,0,0,1-.0615-.07.3619.3619,0,0,1-.0381-.12,1.2256,1.2256,0,0,1,.0088-.3925.334.334,0,0,1,.1-.1612,1.2745,1.2745,0,0,1,.2724-.1787,3.0123,3.0123,0,0,1,.4454-.1875,4.0429,4.0429,0,0,1,.5507-.1406,3.29,3.29,0,0,1,.6036-.0557,3.1676,3.1676,0,0,1,.9668.1289,1.5643,1.5643,0,0,1,.6445.378,1.4633,1.4633,0,0,1,.3574.6181,2.9941,2.9941,0,0,1,.1113.8614Zm-.9609-2.4082h-.8262a3.117,3.117,0,0,0-.6914.0674,1.4235,1.4235,0,0,0-.4863.1992.8248.8248,0,0,0-.2842.3164.9507.9507,0,0,0-.0908.4248.85.85,0,0,0,.2607.6533,1.0288,1.0288,0,0,0,.73.2432,1.3572,1.3572,0,0,0,.7061-.1934,3.0407,3.0407,0,0,0,.6826-.5918Z"/><path d="M268.3385,30.8623a1.2216,1.2216,0,0,1-.0235.2695.3008.3008,0,0,1-.07.1465.4569.4569,0,0,1-.1406.0879,1.1458,1.1458,0,0,1-.2139.0674q-.12.0264-.2548.044a2.0861,2.0861,0,0,1-.27.0175,2.03,2.03,0,0,1-.7031-.1084,1.1357,1.1357,0,0,1-.48-.3281,1.3515,1.3515,0,0,1-.2724-.5566,3.2715,3.2715,0,0,1-.085-.794V26.626h-.7383a.1582.1582,0,0,1-.1406-.0938.6535.6535,0,0,1-.0527-.3046,1.0187,1.0187,0,0,1,.0146-.1875.5405.5405,0,0,1,.0381-.126.1466.1466,0,0,1,.0615-.07.176.176,0,0,1,.085-.0205h.7324v-1.254a.148.148,0,0,1,.0205-.0761.1667.1667,0,0,1,.0762-.0615.5.5,0,0,1,.1494-.0381,1.9435,1.9435,0,0,1,.2344-.0118,2.0047,2.0047,0,0,1,.24.0118.4636.4636,0,0,1,.1465.0381.1907.1907,0,0,1,.0762.0615.1346.1346,0,0,1,.0234.0761v1.254h1.3535a.16.16,0,0,1,.0821.0205.17.17,0,0,1,.0615.07.3992.3992,0,0,1,.0381.126,1.2622,1.2622,0,0,1,.0117.1875.6533.6533,0,0,1-.0528.3046.1581.1581,0,0,1-.1406.0938h-1.3535v2.9414a1.676,1.676,0,0,0,.1611.8232.61.61,0,0,0,.5772.2784.9926.9926,0,0,0,.24-.0264q.1054-.0264.1875-.0557t.1406-.0556a.2612.2612,0,0,1,.1055-.0264.1139.1139,0,0,1,.0557.0146.0979.0979,0,0,1,.041.0557.67.67,0,0,1,.0264.1113A1.1,1.1,0,0,1,268.3385,30.8623Z"/><path d="M273.442,31.2549a.1234.1234,0,0,1-.0469.1055.3287.3287,0,0,1-.1289.0527,1.23,1.23,0,0,1-.24.0176,1.337,1.337,0,0,1-.2432-.0176.2885.2885,0,0,1-.1318-.0527.1312.1312,0,0,1-.041-.1055v-.5273a2.6052,2.6052,0,0,1-.7705.5742,2.043,2.043,0,0,1-.8995.205,2.45,2.45,0,0,1-.7529-.1084,1.6281,1.6281,0,0,1-.5742-.3134,1.405,1.405,0,0,1-.3691-.5039,1.6682,1.6682,0,0,1-.1319-.68,1.5725,1.5725,0,0,1,.1817-.7735,1.5117,1.5117,0,0,1,.5214-.5449,2.5647,2.5647,0,0,1,.8321-.3252,5.17,5.17,0,0,1,1.1074-.1084h.7266v-.41a2.0383,2.0383,0,0,0-.0645-.5391.9239.9239,0,0,0-.208-.39.8923.8923,0,0,0-.3721-.2344,1.7323,1.7323,0,0,0-.5625-.0791,2.24,2.24,0,0,0-.6416.0849,3.4459,3.4459,0,0,0-.498.1875q-.2139.1026-.3574.1875a.4927.4927,0,0,1-.2139.085.1443.1443,0,0,1-.082-.0234.2007.2007,0,0,1-.0616-.07.3643.3643,0,0,1-.038-.12,1.0117,1.0117,0,0,1-.0118-.1611,1.0335,1.0335,0,0,1,.02-.2314.3355.3355,0,0,1,.1-.1612,1.2784,1.2784,0,0,1,.2725-.1787,3.0108,3.0108,0,0,1,.4453-.1875,4.0483,4.0483,0,0,1,.5508-.1406,3.2894,3.2894,0,0,1,.6035-.0557,3.1672,3.1672,0,0,1,.9668.1289,1.5636,1.5636,0,0,1,.6445.378,1.4624,1.4624,0,0,1,.3575.6181,2.9941,2.9941,0,0,1,.1113.8614Zm-.9609-2.4082h-.8262a3.117,3.117,0,0,0-.6914.0674,1.4235,1.4235,0,0,0-.4863.1992.8232.8232,0,0,0-.2842.3164.9493.9493,0,0,0-.0908.4248.85.85,0,0,0,.2607.6533,1.0286,1.0286,0,0,0,.7295.2432,1.3569,1.3569,0,0,0,.706-.1934,3.041,3.041,0,0,0,.6827-.5918Z"/><path d="M254.673,101.4063q0,.0938-.0059.164a.6693.6693,0,0,1-.02.1231.4113.4113,0,0,1-.0381.0937.511.511,0,0,1-.082.1,1.6836,1.6836,0,0,1-.2461.1787,2.9435,2.9435,0,0,1-.4658.2344,3.8811,3.8811,0,0,1-.6387.1934,3.68,3.68,0,0,1-.7881.0791,3.4577,3.4577,0,0,1-1.333-.2461,2.6924,2.6924,0,0,1-1.0137-.7266,3.3137,3.3137,0,0,1-.6445-1.1865,5.9535,5.9535,0,0,1,.0176-3.3076,3.6516,3.6516,0,0,1,.6826-1.251,2.9175,2.9175,0,0,1,1.0517-.7822,3.3307,3.3307,0,0,1,1.3565-.27,3.2812,3.2812,0,0,1,.6387.0616,4.0827,4.0827,0,0,1,.5742.1552,2.6082,2.6082,0,0,1,.4687.2168,1.5886,1.5886,0,0,1,.2842.2022.6807.6807,0,0,1,.1025.12.3932.3932,0,0,1,.0381.0967.9531.9531,0,0,1,.0235.1318,1.6272,1.6272,0,0,1,.0088.1817,1.423,1.423,0,0,1-.0118.1992.541.541,0,0,1-.0356.1377.2079.2079,0,0,1-.0557.082.122.122,0,0,1-.08.0264.4355.4355,0,0,1-.23-.1143,3.7606,3.7606,0,0,0-.38-.2519,3.0593,3.0593,0,0,0-.5655-.252,2.4652,2.4652,0,0,0-.7978-.1142,2.08,2.08,0,0,0-.9224.2021,1.9441,1.9441,0,0,0-.7094.5947,2.92,2.92,0,0,0-.4566.958,5.2515,5.2515,0,0,0-.0058,2.5664,2.6394,2.6394,0,0,0,.4477.9258,1.8693,1.8693,0,0,0,.7153.5625,2.321,2.321,0,0,0,.96.1905,2.54,2.54,0,0,0,.792-.1114,3.0672,3.0672,0,0,0,.5771-.249,4.5915,4.5915,0,0,0,.3921-.249.47.47,0,0,1,.2412-.1114.1347.1347,0,0,1,.0708.0176.1246.1246,0,0,1,.0474.0674.6172.6172,0,0,1,.0264.1377Q254.6729,101.2715,254.673,101.4063Z"/><path d="M260.8019,99.6367a3.95,3.95,0,0,1-.17,1.1866,2.6165,2.6165,0,0,1-.5068.9345,2.2973,2.2973,0,0,1-.8437.6123,2.9317,2.9317,0,0,1-1.1749.22,3.0419,3.0419,0,0,1-1.1337-.1934,2.0708,2.0708,0,0,1-.8057-.5625,2.3845,2.3845,0,0,1-.4805-.8965,4.1615,4.1615,0,0,1-.1582-1.1953,4.0146,4.0146,0,0,1,.167-1.1865,2.5818,2.5818,0,0,1,.5039-.9346,2.2741,2.2741,0,0,1,.8408-.6094,2.9624,2.9624,0,0,1,1.1778-.2168,3.0424,3.0424,0,0,1,1.1338.1934,2.0712,2.0712,0,0,1,.8056.5625,2.4148,2.4148,0,0,1,.4834.8965A4.066,4.066,0,0,1,260.8019,99.6367Zm-1.002.0645a3.93,3.93,0,0,0-.08-.8086,1.9882,1.9882,0,0,0-.2627-.668,1.3085,1.3085,0,0,0-.497-.4541,1.6439,1.6439,0,0,0-.78-.167,1.67,1.67,0,0,0-.7422.1524,1.3645,1.3645,0,0,0-.5112.4306,1.9359,1.9359,0,0,0-.2984.6592,3.355,3.355,0,0,0-.0976.832,3.9258,3.9258,0,0,0,.08.8145,1.9109,1.9109,0,0,0,.2656.665,1.3422,1.3422,0,0,0,.5.4512,1.6471,1.6471,0,0,0,.7808.167,1.6736,1.6736,0,0,0,.7387-.1523,1.3682,1.3682,0,0,0,.5147-.4278,1.8629,1.8629,0,0,0,.2954-.6562A3.4775,3.4775,0,0,0,259.8,99.7012Z"/><path d="M263.1925,102.332a.13.13,0,0,1-.0235.0791.1835.1835,0,0,1-.0761.0557.5365.5365,0,0,1-.1465.0352,2.0076,2.0076,0,0,1-.24.0117,1.9462,1.9462,0,0,1-.2344-.0117.5805.5805,0,0,1-.1494-.0352.1611.1611,0,0,1-.0762-.0557.1439.1439,0,0,1-.02-.0791V94.5039a.16.16,0,0,1,.02-.082.1523.1523,0,0,1,.0762-.0586.5805.5805,0,0,1,.1494-.0352,1.9462,1.9462,0,0,1,.2344-.0117,2.0076,2.0076,0,0,1,.24.0117.5365.5365,0,0,1,.1465.0352.1716.1716,0,0,1,.0761.0586.1438.1438,0,0,1,.0235.082Z"/><path d="M269.4972,102.332a.1447.1447,0,0,1-.0205.0791.161.161,0,0,1-.0733.0557.5189.5189,0,0,1-.1377.0352,1.5581,1.5581,0,0,1-.208.0117,1.67,1.67,0,0,1-.22-.0117.4774.4774,0,0,1-.1348-.0352.142.142,0,0,1-.0674-.0557.1632.1632,0,0,1-.0175-.0791v-.6972a3.2841,3.2841,0,0,1-.8907.7265,1.9109,1.9109,0,0,1-.8906.2286,2.0144,2.0144,0,0,1-.8877-.1758,1.5607,1.5607,0,0,1-.583-.4776,1.93,1.93,0,0,1-.3193-.7031,4.226,4.226,0,0,1-.0967-.9756V97.0586a.1443.1443,0,0,1,.02-.0791.1772.1772,0,0,1,.0791-.0586.4854.4854,0,0,1,.1524-.0351q.0938-.0088.2343-.0088t.2344.0088a.452.452,0,0,1,.1494.0351.2032.2032,0,0,1,.0791.0586.1312.1312,0,0,1,.0235.0791v3.07a3.27,3.27,0,0,0,.0673.7412,1.3865,1.3865,0,0,0,.2051.4746.9506.9506,0,0,0,.3486.3047,1.0626,1.0626,0,0,0,.4922.1084,1.2372,1.2372,0,0,0,.7237-.2578,4.1132,4.1132,0,0,0,.7646-.7558V97.0586a.1452.1452,0,0,1,.0205-.0791.1777.1777,0,0,1,.0791-.0586.4786.4786,0,0,1,.1494-.0351q.0909-.0088.2373-.0088.1407,0,.2344.0088a.4216.4216,0,0,1,.1465.0351.238.238,0,0,1,.0791.0586.1209.1209,0,0,1,.0264.0791Z"/><path d="M279.1065,102.332a.1307.1307,0,0,1-.0234.0791.1832.1832,0,0,1-.0762.0557.5347.5347,0,0,1-.1464.0352,1.9473,1.9473,0,0,1-.2344.0117,2.0083,2.0083,0,0,1-.24-.0117.5805.5805,0,0,1-.1494-.0352.1831.1831,0,0,1-.0791-.0557.1307.1307,0,0,1-.0234-.0791V99.127a2.931,2.931,0,0,0-.0586-.6094,1.4047,1.4047,0,0,0-.1875-.4746.8744.8744,0,0,0-.3281-.3047.9884.9884,0,0,0-.4688-.1055,1.104,1.104,0,0,0-.6709.2578,4.6336,4.6336,0,0,0-.7412.7559v3.6855a.1307.1307,0,0,1-.0234.0791.1825.1825,0,0,1-.0791.0557.5805.5805,0,0,1-.1494.0352,2.3248,2.3248,0,0,1-.4659,0,.5867.5867,0,0,1-.1523-.0352.1611.1611,0,0,1-.0762-.0557.1447.1447,0,0,1-.0205-.0791V99.127a2.68,2.68,0,0,0-.0644-.6094,1.4945,1.4945,0,0,0-.1934-.4746.8808.8808,0,0,0-.3252-.3047.9708.9708,0,0,0-.4658-.1055,1.1156,1.1156,0,0,0-.6738.2578,4.4034,4.4034,0,0,0-.7383.7559v3.6855a.13.13,0,0,1-.0235.0791.1835.1835,0,0,1-.0761.0557.5365.5365,0,0,1-.1465.0352,2.0076,2.0076,0,0,1-.24.0117,1.9462,1.9462,0,0,1-.2344-.0117.5805.5805,0,0,1-.1494-.0352.1611.1611,0,0,1-.0762-.0557.1439.1439,0,0,1-.0205-.0791V97.0586a.1626.1626,0,0,1,.0176-.0791.1557.1557,0,0,1,.07-.0586.3956.3956,0,0,1,.1347-.0351,2.6393,2.6393,0,0,1,.4307,0,.3443.3443,0,0,1,.1318.0351.1848.1848,0,0,1,.0674.0586.1443.1443,0,0,1,.0205.0791v.6973a3.4233,3.4233,0,0,1,.8643-.73,1.7345,1.7345,0,0,1,.8467-.2315,2.0986,2.0986,0,0,1,.5888.0762,1.5827,1.5827,0,0,1,.46.2139,1.4269,1.4269,0,0,1,.34.3281,1.8975,1.8975,0,0,1,.2344.4248,5.4423,5.4423,0,0,1,.501-.4863,2.9964,2.9964,0,0,1,.457-.3223,1.869,1.869,0,0,1,.4278-.1787,1.614,1.614,0,0,1,.4189-.0557,1.85,1.85,0,0,1,.8555.1787,1.5515,1.5515,0,0,1,.56.4776,1.9126,1.9126,0,0,1,.3047.7,3.8242,3.8242,0,0,1,.0908.8467Z"/><path d="M285.4112,102.332a.1307.1307,0,0,1-.0234.0791.1832.1832,0,0,1-.0762.0557.5355.5355,0,0,1-.1465.0352,1.9455,1.9455,0,0,1-.2343.0117,2.0083,2.0083,0,0,1-.24-.0117.5365.5365,0,0,1-.1465-.0352.1835.1835,0,0,1-.0761-.0557.1308.1308,0,0,1-.0235-.0791V99.2442a3.0347,3.0347,0,0,0-.07-.7266,1.5006,1.5006,0,0,0-.2051-.4746.8888.8888,0,0,0-.3486-.3047,1.1062,1.1062,0,0,0-.4951-.1055,1.25,1.25,0,0,0-.7266.2578,3.9371,3.9371,0,0,0-.7617.7559v3.6855a.1307.1307,0,0,1-.0234.0791.1832.1832,0,0,1-.0762.0557.5355.5355,0,0,1-.1465.0352,2.0076,2.0076,0,0,1-.24.0117,1.9462,1.9462,0,0,1-.2344-.0117.5805.5805,0,0,1-.1494-.0352.1611.1611,0,0,1-.0762-.0557.1447.1447,0,0,1-.02-.0791V97.0586a.1637.1637,0,0,1,.0176-.0791.1563.1563,0,0,1,.07-.0586.3962.3962,0,0,1,.1348-.0351,2.638,2.638,0,0,1,.4306,0,.3449.3449,0,0,1,.1319.0351.1856.1856,0,0,1,.0674.0586.1452.1452,0,0,1,.02.0791v.6973a3.2383,3.2383,0,0,1,.8877-.73,1.91,1.91,0,0,1,.8935-.2315,1.9863,1.9863,0,0,1,.8877.1787,1.5988,1.5988,0,0,1,.583.4776,1.902,1.902,0,0,1,.3194.7,4.1706,4.1706,0,0,1,.0966.9638Z"/><path d="M295.8292,98.5762a5.3111,5.3111,0,0,1-.2519,1.72,3.1238,3.1238,0,0,1-.7354,1.2188,3.04,3.04,0,0,1-1.1865.7236,5.2034,5.2034,0,0,1-1.6758.24h-1.6055a.4154.4154,0,0,1-.2549-.0908.3768.3768,0,0,1-.12-.3193V95.3067a.377.377,0,0,1,.12-.3194.416.416,0,0,1,.2549-.0908h1.7168a4.7632,4.7632,0,0,1,1.6641.2549,3.0332,3.0332,0,0,1,1.14.7324,3.1285,3.1285,0,0,1,.6973,1.1572A4.6405,4.6405,0,0,1,295.8292,98.5762Zm-1.06.041a4.1315,4.1315,0,0,0-.1524-1.1455,2.4589,2.4589,0,0,0-.4775-.917,2.2062,2.2062,0,0,0-.8233-.6035,3.2414,3.2414,0,0,0-1.2832-.2168h-1.0254v5.9h1.0371a3.5985,3.5985,0,0,0,1.2247-.1817,2.02,2.02,0,0,0,.832-.5566,2.4236,2.4236,0,0,0,.501-.94A4.7575,4.7575,0,0,0,294.7687,98.6172Z"/><path d="M301.2433,102.3379a.1237.1237,0,0,1-.0469.1055.3293.3293,0,0,1-.1289.0527,1.2306,1.2306,0,0,1-.24.0176,1.3363,1.3363,0,0,1-.2432-.0176.288.288,0,0,1-.1318-.0527.1313.1313,0,0,1-.0411-.1055v-.5273a2.6022,2.6022,0,0,1-.7705.5742,2.043,2.043,0,0,1-.8994.2051,2.4529,2.4529,0,0,1-.7529-.1084,1.63,1.63,0,0,1-.5742-.3135,1.4064,1.4064,0,0,1-.3692-.5039,1.6679,1.6679,0,0,1-.1318-.68,1.5725,1.5725,0,0,1,.1816-.7735,1.512,1.512,0,0,1,.5215-.5449,2.5641,2.5641,0,0,1,.832-.3252,5.1716,5.1716,0,0,1,1.1075-.1084h.7265v-.41a2.0432,2.0432,0,0,0-.0644-.5391.9239.9239,0,0,0-.208-.39.8939.8939,0,0,0-.3721-.2344,1.735,1.735,0,0,0-.5625-.0791,2.2361,2.2361,0,0,0-.6416.085,3.42,3.42,0,0,0-.4981.1875q-.2138.1025-.3574.1875a.4937.4937,0,0,1-.2138.0849.1448.1448,0,0,1-.0821-.0234.2015.2015,0,0,1-.0615-.07.3619.3619,0,0,1-.0381-.12,1.2256,1.2256,0,0,1,.0088-.3925.3355.3355,0,0,1,.1-.1612,1.2823,1.2823,0,0,1,.2725-.1787,3.0063,3.0063,0,0,1,.4453-.1875,4.0483,4.0483,0,0,1,.5508-.1406,3.2894,3.2894,0,0,1,.6035-.0557,3.1672,3.1672,0,0,1,.9668.1289,1.5647,1.5647,0,0,1,.6445.378,1.4622,1.4622,0,0,1,.3574.6181,2.99,2.99,0,0,1,.1114.8614Zm-.961-2.4082h-.8261a3.1164,3.1164,0,0,0-.6914.0674,1.4232,1.4232,0,0,0-.4864.1992.8248.8248,0,0,0-.2842.3164.9513.9513,0,0,0-.0908.4248.85.85,0,0,0,.2608.6533,1.0286,1.0286,0,0,0,.73.2432,1.3569,1.3569,0,0,0,.706-.1934,3.0407,3.0407,0,0,0,.6826-.5918Z"/><path d="M305.65,101.9453a1.23,1.23,0,0,1-.0234.27.3017.3017,0,0,1-.07.1464.4587.4587,0,0,1-.1407.0879,1.1446,1.1446,0,0,1-.2138.0674q-.12.0264-.2549.044a2.0857,2.0857,0,0,1-.2695.0175,2.03,2.03,0,0,1-.7032-.1084,1.1354,1.1354,0,0,1-.48-.3281,1.3516,1.3516,0,0,1-.2725-.5566,3.2765,3.2765,0,0,1-.085-.794V97.709h-.7382a.1583.1583,0,0,1-.1407-.0938.6548.6548,0,0,1-.0527-.3046,1.009,1.009,0,0,1,.0147-.1875.5361.5361,0,0,1,.038-.126.1473.1473,0,0,1,.0616-.07.1759.1759,0,0,1,.0849-.02h.7324V95.6524a.1482.1482,0,0,1,.0206-.0762.1659.1659,0,0,1,.0761-.0615.5.5,0,0,1,.1494-.0381,1.9473,1.9473,0,0,1,.2344-.0117,2.0065,2.0065,0,0,1,.24.0117.4628.4628,0,0,1,.1465.0381.19.19,0,0,1,.0762.0615.1347.1347,0,0,1,.0234.0762v1.2539h1.3536a.16.16,0,0,1,.082.02.17.17,0,0,1,.0615.07.3992.3992,0,0,1,.0381.126,1.2622,1.2622,0,0,1,.0117.1875.6548.6548,0,0,1-.0527.3046.1582.1582,0,0,1-.1406.0938h-1.3536V100.65a1.6759,1.6759,0,0,0,.1612.8232.61.61,0,0,0,.5771.2784.9935.9935,0,0,0,.24-.0264q.1054-.0264.1875-.0557t.1406-.0556a.26.26,0,0,1,.1055-.0264.1125.1125,0,0,1,.0556.0147.0969.0969,0,0,1,.041.0556.67.67,0,0,1,.0264.1113A1.1,1.1,0,0,1,305.65,101.9453Z"/><path d="M310.753,102.3379a.1236.1236,0,0,1-.0468.1055.33.33,0,0,1-.1289.0527,1.231,1.231,0,0,1-.24.0176,1.3358,1.3358,0,0,1-.2431-.0176.2889.2889,0,0,1-.1319-.0527.1315.1315,0,0,1-.041-.1055v-.5273a2.6034,2.6034,0,0,1-.77.5742,2.043,2.043,0,0,1-.8994.2051,2.4536,2.4536,0,0,1-.753-.1084,1.63,1.63,0,0,1-.5742-.3135,1.4062,1.4062,0,0,1-.3691-.5039,1.6679,1.6679,0,0,1-.1318-.68,1.5725,1.5725,0,0,1,.1816-.7735,1.5112,1.5112,0,0,1,.5215-.5449,2.5632,2.5632,0,0,1,.832-.3252,5.1707,5.1707,0,0,1,1.1074-.1084h.7266v-.41a2.0388,2.0388,0,0,0-.0645-.5391.9228.9228,0,0,0-.208-.39.8936.8936,0,0,0-.372-.2344,1.7359,1.7359,0,0,0-.5625-.0791,2.2361,2.2361,0,0,0-.6416.085,3.42,3.42,0,0,0-.4981.1875q-.2139.1025-.3574.1875a.4935.4935,0,0,1-.2139.0849.1445.1445,0,0,1-.082-.0234.2005.2005,0,0,1-.0615-.07.3619.3619,0,0,1-.0381-.12,1.2256,1.2256,0,0,1,.0088-.3925.334.334,0,0,1,.1-.1612,1.2783,1.2783,0,0,1,.2724-.1787,3.0123,3.0123,0,0,1,.4454-.1875,4.0429,4.0429,0,0,1,.5507-.1406,3.29,3.29,0,0,1,.6036-.0557,3.1676,3.1676,0,0,1,.9668.1289,1.5654,1.5654,0,0,1,.6445.378,1.4633,1.4633,0,0,1,.3574.6181,2.9941,2.9941,0,0,1,.1113.8614Zm-.9609-2.4082h-.8262a3.117,3.117,0,0,0-.6914.0674,1.4235,1.4235,0,0,0-.4863.1992.8248.8248,0,0,0-.2842.3164.9513.9513,0,0,0-.0908.4248.85.85,0,0,0,.2607.6533,1.0288,1.0288,0,0,0,.7295.2432,1.3572,1.3572,0,0,0,.7061-.1934,3.0407,3.0407,0,0,0,.6826-.5918Z"/><path d="M209.9664,170.0684q0,.0938-.0058.164a.6773.6773,0,0,1-.0206.1231.4068.4068,0,0,1-.038.0937.5122.5122,0,0,1-.0821.1,1.6838,1.6838,0,0,1-.2461.1788,2.94,2.94,0,0,1-.4658.2343,3.8656,3.8656,0,0,1-.6387.1934,3.6785,3.6785,0,0,1-.788.0791,3.4563,3.4563,0,0,1-1.3331-.2461,2.6929,2.6929,0,0,1-1.0136-.7266,3.3139,3.3139,0,0,1-.6446-1.1865,5.9559,5.9559,0,0,1,.0176-3.3076,3.6533,3.6533,0,0,1,.6826-1.251,2.9178,2.9178,0,0,1,1.0518-.7822,3.33,3.33,0,0,1,1.3564-.2695,3.28,3.28,0,0,1,.6387.0615,4.0788,4.0788,0,0,1,.5742.1553,2.6092,2.6092,0,0,1,.4688.2167,1.5924,1.5924,0,0,1,.2842.2022.6807.6807,0,0,1,.1025.12.4029.4029,0,0,1,.0381.0967.94.94,0,0,1,.0234.1318,1.6047,1.6047,0,0,1,.0088.1817,1.44,1.44,0,0,1-.0117.1992.541.541,0,0,1-.0356.1377.2089.2089,0,0,1-.0557.082.1222.1222,0,0,1-.08.0264.4351.4351,0,0,1-.23-.1143,3.7805,3.7805,0,0,0-.38-.2519,3.0581,3.0581,0,0,0-.5654-.252,2.4661,2.4661,0,0,0-.7978-.1142,2.0792,2.0792,0,0,0-.9224.2021,1.9444,1.9444,0,0,0-.71.5947,2.9209,2.9209,0,0,0-.4565.958,5.2535,5.2535,0,0,0-.0059,2.5665,2.6381,2.6381,0,0,0,.4478.9257,1.8693,1.8693,0,0,0,.7153.5625,2.32,2.32,0,0,0,.96.19,2.5365,2.5365,0,0,0,.792-.1114,3.0683,3.0683,0,0,0,.5772-.249,4.6075,4.6075,0,0,0,.3921-.249.4692.4692,0,0,1,.2412-.1113.1349.1349,0,0,1,.0708.0175.126.126,0,0,1,.0474.0674.6123.6123,0,0,1,.0263.1377Q209.9665,169.9336,209.9664,170.0684Z"/><path d="M216.0953,168.2988a3.95,3.95,0,0,1-.17,1.1866,2.618,2.618,0,0,1-.5068.9345,2.2945,2.2945,0,0,1-.8438.6123,2.9315,2.9315,0,0,1-1.1748.22,3.0424,3.0424,0,0,1-1.1338-.1934,2.0712,2.0712,0,0,1-.8056-.5625,2.3831,2.3831,0,0,1-.4805-.8965,4.1575,4.1575,0,0,1-.1582-1.1953,4.0114,4.0114,0,0,1,.167-1.1865,2.5826,2.5826,0,0,1,.5039-.9346,2.2741,2.2741,0,0,1,.8408-.6094,2.9615,2.9615,0,0,1,1.1777-.2168,3.0421,3.0421,0,0,1,1.1338.1934,2.0715,2.0715,0,0,1,.8057.5625,2.4162,2.4162,0,0,1,.4834.8965A4.0661,4.0661,0,0,1,216.0953,168.2988Zm-1.0019.0645a3.9365,3.9365,0,0,0-.08-.8086,1.9882,1.9882,0,0,0-.2627-.668,1.31,1.31,0,0,0-.4971-.4541,1.6436,1.6436,0,0,0-.78-.167,1.6693,1.6693,0,0,0-.7421.1524,1.3648,1.3648,0,0,0-.5113.4306,1.9339,1.9339,0,0,0-.2983.6592,3.35,3.35,0,0,0-.0977.8321,3.9324,3.9324,0,0,0,.08.8144,1.9109,1.9109,0,0,0,.2656.665,1.3429,1.3429,0,0,0,.5.4512,1.6474,1.6474,0,0,0,.7808.167,1.6737,1.6737,0,0,0,.7388-.1523,1.3671,1.3671,0,0,0,.5146-.4278,1.8629,1.8629,0,0,0,.2954-.6562A3.4774,3.4774,0,0,0,215.0934,168.3633Z"/><path d="M218.4859,170.9942a.1311.1311,0,0,1-.0234.0791.184.184,0,0,1-.0762.0556.5355.5355,0,0,1-.1465.0352,2.0065,2.0065,0,0,1-.24.0117,1.9473,1.9473,0,0,1-.2344-.0117.5805.5805,0,0,1-.1494-.0352.1608.1608,0,0,1-.0761-.0556.1444.1444,0,0,1-.0206-.0791V163.166a.16.16,0,0,1,.0206-.082.1521.1521,0,0,1,.0761-.0586.5847.5847,0,0,1,.1494-.0352,1.9473,1.9473,0,0,1,.2344-.0117,2.0065,2.0065,0,0,1,.24.0117.5392.5392,0,0,1,.1465.0352.1721.1721,0,0,1,.0762.0586.1445.1445,0,0,1,.0234.082Z"/><path d="M224.7906,170.9942a.1443.1443,0,0,1-.02.0791.1612.1612,0,0,1-.0732.0556.521.521,0,0,1-.1377.0352,1.56,1.56,0,0,1-.208.0117,1.6685,1.6685,0,0,1-.22-.0117.4764.4764,0,0,1-.1348-.0352.1419.1419,0,0,1-.0674-.0556.1637.1637,0,0,1-.0176-.0791v-.6973a3.2838,3.2838,0,0,1-.8906.7265,1.9112,1.9112,0,0,1-.8906.2286,2.0138,2.0138,0,0,1-.8877-.1758,1.5592,1.5592,0,0,1-.583-.4776,1.93,1.93,0,0,1-.3194-.7031,4.2321,4.2321,0,0,1-.0966-.9756v-3.1992a.1443.1443,0,0,1,.02-.0791.1766.1766,0,0,1,.0791-.0586.484.484,0,0,1,.1523-.0351q.0938-.0088.2344-.0088t.2344.0088a.452.452,0,0,1,.1494.0351.204.204,0,0,1,.0791.0586.1311.1311,0,0,1,.0234.0791v3.07a3.2688,3.2688,0,0,0,.0674.7412,1.3845,1.3845,0,0,0,.2051.4746.9506.9506,0,0,0,.3486.3047,1.0623,1.0623,0,0,0,.4922.1084,1.2367,1.2367,0,0,0,.7236-.2578,4.1133,4.1133,0,0,0,.7647-.7558v-3.6856a.1443.1443,0,0,1,.02-.0791.1772.1772,0,0,1,.0791-.0586.4779.4779,0,0,1,.1494-.0351q.0907-.0088.2373-.0088.1407,0,.2344.0088a.4216.4216,0,0,1,.1465.0351.2391.2391,0,0,1,.0791.0586.1213.1213,0,0,1,.0263.0791Z"/><path d="M234.4,170.9942a.1311.1311,0,0,1-.0234.0791.1846.1846,0,0,1-.0762.0556.5365.5365,0,0,1-.1465.0352,1.9462,1.9462,0,0,1-.2344.0117,2.0076,2.0076,0,0,1-.24-.0117.5805.5805,0,0,1-.1494-.0352.1832.1832,0,0,1-.0791-.0556.1312.1312,0,0,1-.0235-.0791v-3.2051a2.9381,2.9381,0,0,0-.0585-.6094,1.4047,1.4047,0,0,0-.1875-.4746.8754.8754,0,0,0-.3282-.3047.988.988,0,0,0-.4687-.1055,1.1038,1.1038,0,0,0-.6709.2578,4.6336,4.6336,0,0,0-.7412.7559v3.6856a.1305.1305,0,0,1-.0235.0791.1832.1832,0,0,1-.0791.0556.5805.5805,0,0,1-.1494.0352,2.3238,2.3238,0,0,1-.4658,0,.5857.5857,0,0,1-.1523-.0352.1611.1611,0,0,1-.0762-.0556.1443.1443,0,0,1-.02-.0791v-3.2051a2.6744,2.6744,0,0,0-.0645-.6094,1.4921,1.4921,0,0,0-.1933-.4746.8824.8824,0,0,0-.3252-.3047.9712.9712,0,0,0-.4659-.1055,1.116,1.116,0,0,0-.6738.2578,4.4108,4.4108,0,0,0-.7383.7559v3.6856a.1311.1311,0,0,1-.0234.0791.184.184,0,0,1-.0762.0556.5355.5355,0,0,1-.1465.0352,2.0065,2.0065,0,0,1-.24.0117,1.9473,1.9473,0,0,1-.2344-.0117.5805.5805,0,0,1-.1494-.0352.1616.1616,0,0,1-.0762-.0556.1452.1452,0,0,1-.02-.0791v-5.2735a.1637.1637,0,0,1,.0176-.0791.1563.1563,0,0,1,.07-.0586.3962.3962,0,0,1,.1348-.0351,2.6393,2.6393,0,0,1,.4307,0,.3448.3448,0,0,1,.1318.0351.1856.1856,0,0,1,.0674.0586.1443.1443,0,0,1,.02.0791v.6973a3.423,3.423,0,0,1,.8642-.73,1.7347,1.7347,0,0,1,.8467-.2315,2.0988,2.0988,0,0,1,.5889.0762,1.5851,1.5851,0,0,1,.46.2139,1.4307,1.4307,0,0,1,.34.3281,1.9015,1.9015,0,0,1,.2344.4248,5.4422,5.4422,0,0,1,.5009-.4863,3.0018,3.0018,0,0,1,.4571-.3223,1.8683,1.8683,0,0,1,.4277-.1787,1.6147,1.6147,0,0,1,.419-.0557,1.8477,1.8477,0,0,1,.8554.1788,1.5506,1.5506,0,0,1,.56.4775,1.9143,1.9143,0,0,1,.3047.7,3.83,3.83,0,0,1,.0908.8467Z"/><path d="M240.7047,170.9942a.1311.1311,0,0,1-.0234.0791.1853.1853,0,0,1-.0762.0556.5365.5365,0,0,1-.1465.0352,1.9462,1.9462,0,0,1-.2344.0117,2.0076,2.0076,0,0,1-.24-.0117.5365.5365,0,0,1-.1465-.0352.1846.1846,0,0,1-.0762-.0556.1311.1311,0,0,1-.0234-.0791v-3.0879a3.0347,3.0347,0,0,0-.07-.7266,1.5052,1.5052,0,0,0-.2051-.4746.8888.8888,0,0,0-.3486-.3047,1.1062,1.1062,0,0,0-.4951-.1055,1.25,1.25,0,0,0-.7266.2578,3.9371,3.9371,0,0,0-.7617.7559v3.6856a.1305.1305,0,0,1-.0235.0791.1842.1842,0,0,1-.0761.0556.5365.5365,0,0,1-.1465.0352,2.0083,2.0083,0,0,1-.24.0117,1.9455,1.9455,0,0,1-.2343-.0117.5805.5805,0,0,1-.1494-.0352.1611.1611,0,0,1-.0762-.0556.1443.1443,0,0,1-.02-.0791v-5.2735a.1626.1626,0,0,1,.0176-.0791.1557.1557,0,0,1,.07-.0586.3949.3949,0,0,1,.1347-.0351,2.6393,2.6393,0,0,1,.4307,0,.3443.3443,0,0,1,.1318.0351.1848.1848,0,0,1,.0674.0586.1443.1443,0,0,1,.02.0791v.6973a3.2412,3.2412,0,0,1,.8877-.73,1.91,1.91,0,0,1,.8936-.2315,1.9855,1.9855,0,0,1,.8877.1788,1.5984,1.5984,0,0,1,.583.4775,1.9019,1.9019,0,0,1,.3193.7,4.1655,4.1655,0,0,1,.0967.9639Z"/><path d="M251.1227,167.2383a5.3083,5.3083,0,0,1-.252,1.72,3.1241,3.1241,0,0,1-.7353,1.2188,3.0394,3.0394,0,0,1-1.1866.7236,5.2,5.2,0,0,1-1.6757.24h-1.6055a.4152.4152,0,0,1-.2549-.0908.3765.3765,0,0,1-.12-.3193v-6.7617a.3767.3767,0,0,1,.12-.3194.4158.4158,0,0,1,.2549-.0908h1.7168a4.763,4.763,0,0,1,1.664.2549,3.0341,3.0341,0,0,1,1.14.7324,3.13,3.13,0,0,1,.6973,1.1572A4.6405,4.6405,0,0,1,251.1227,167.2383Zm-1.0606.041a4.1358,4.1358,0,0,0-.1523-1.1455,2.46,2.46,0,0,0-.4776-.917,2.2067,2.2067,0,0,0-.8232-.6035,3.2418,3.2418,0,0,0-1.2832-.2168H246.3v5.9h1.0371a3.5975,3.5975,0,0,0,1.2246-.1817,2.0187,2.0187,0,0,0,.832-.5566,2.421,2.421,0,0,0,.501-.94A4.7539,4.7539,0,0,0,250.0621,167.2793Z"/><path d="M256.5367,171a.1234.1234,0,0,1-.0469.1055.3287.3287,0,0,1-.1289.0527,1.2292,1.2292,0,0,1-.24.0176,1.337,1.337,0,0,1-.2432-.0176.289.289,0,0,1-.1318-.0527.1315.1315,0,0,1-.041-.1055v-.5273a2.6034,2.6034,0,0,1-.77.5742,2.043,2.043,0,0,1-.8994.2051,2.4536,2.4536,0,0,1-.753-.1084,1.63,1.63,0,0,1-.5742-.3135,1.4062,1.4062,0,0,1-.3691-.5039,1.6679,1.6679,0,0,1-.1319-.68,1.5719,1.5719,0,0,1,.1817-.7734,1.5106,1.5106,0,0,1,.5215-.545,2.5632,2.5632,0,0,1,.832-.3252,5.1707,5.1707,0,0,1,1.1074-.1084h.7266v-.41a2.0388,2.0388,0,0,0-.0645-.5391.9228.9228,0,0,0-.208-.39.8936.8936,0,0,0-.372-.2344,1.7359,1.7359,0,0,0-.5625-.0791,2.2361,2.2361,0,0,0-.6416.085,3.42,3.42,0,0,0-.4981.1875q-.2139.1024-.3574.1875a.4935.4935,0,0,1-.2139.0849.1445.1445,0,0,1-.082-.0234.1987.1987,0,0,1-.0615-.07.362.362,0,0,1-.0381-.12,1.2262,1.2262,0,0,1,.0088-.3926.334.334,0,0,1,.1-.1612,1.2783,1.2783,0,0,1,.2724-.1787,3.0108,3.0108,0,0,1,.4453-.1875,4.0483,4.0483,0,0,1,.5508-.1406,3.2894,3.2894,0,0,1,.6035-.0557,3.1667,3.1667,0,0,1,.9668.1289,1.5651,1.5651,0,0,1,.6446.378,1.4633,1.4633,0,0,1,.3574.6181,2.9941,2.9941,0,0,1,.1113.8614Zm-.9609-2.4082H254.75a3.117,3.117,0,0,0-.6914.0674,1.4235,1.4235,0,0,0-.4863.1992.824.824,0,0,0-.2842.3164.9513.9513,0,0,0-.0908.4248.85.85,0,0,0,.2607.6533,1.0284,1.0284,0,0,0,.7295.2432,1.3563,1.3563,0,0,0,.7061-.1934,3.0407,3.0407,0,0,0,.6826-.5918Z"/><path d="M260.943,170.6074a1.2226,1.2226,0,0,1-.0235.27.3008.3008,0,0,1-.07.1464.4569.4569,0,0,1-.1406.0879,1.1458,1.1458,0,0,1-.2139.0674q-.12.0264-.2549.044a2.0834,2.0834,0,0,1-.2695.0175,2.03,2.03,0,0,1-.7031-.1084,1.1357,1.1357,0,0,1-.4805-.3281,1.3515,1.3515,0,0,1-.2724-.5566,3.2715,3.2715,0,0,1-.085-.794v-3.082h-.7383a.1581.1581,0,0,1-.1406-.0937.654.654,0,0,1-.0527-.3047,1.01,1.01,0,0,1,.0146-.1875.5405.5405,0,0,1,.0381-.126.1471.1471,0,0,1,.0615-.07.176.176,0,0,1,.085-.02h.7324v-1.2539a.1481.1481,0,0,1,.02-.0762.1674.1674,0,0,1,.0762-.0615.5.5,0,0,1,.1494-.0381,1.9462,1.9462,0,0,1,.2344-.0117,2.0076,2.0076,0,0,1,.24.0117.4636.4636,0,0,1,.1465.0381.1923.1923,0,0,1,.0762.0615.1347.1347,0,0,1,.0234.0762v1.2539H260.75a.1592.1592,0,0,1,.082.02.17.17,0,0,1,.0616.07.4045.4045,0,0,1,.0381.126,1.2622,1.2622,0,0,1,.0117.1875.6537.6537,0,0,1-.0528.3047.1579.1579,0,0,1-.1406.0937h-1.3535v2.9414a1.6767,1.6767,0,0,0,.1611.8233.61.61,0,0,0,.5772.2783.9926.9926,0,0,0,.24-.0264q.1055-.0264.1875-.0557t.1406-.0556a.2612.2612,0,0,1,.1055-.0264.1129.1129,0,0,1,.0557.0147.0973.0973,0,0,1,.041.0556.68.68,0,0,1,.0264.1114A1.0974,1.0974,0,0,1,260.943,170.6074Z"/><path d="M266.0465,171a.1234.1234,0,0,1-.0469.1055.3287.3287,0,0,1-.1289.0527,1.2306,1.2306,0,0,1-.24.0176,1.337,1.337,0,0,1-.2432-.0176.2885.2885,0,0,1-.1318-.0527.1312.1312,0,0,1-.041-.1055v-.5273a2.6034,2.6034,0,0,1-.77.5742,2.0438,2.0438,0,0,1-.8995.2051,2.4529,2.4529,0,0,1-.7529-.1084,1.63,1.63,0,0,1-.5742-.3135,1.4064,1.4064,0,0,1-.3692-.5039,1.67,1.67,0,0,1-.1318-.68,1.5719,1.5719,0,0,1,.1817-.7734,1.51,1.51,0,0,1,.5214-.545,2.5638,2.5638,0,0,1,.8321-.3252,5.17,5.17,0,0,1,1.1074-.1084h.7266v-.41a2.0388,2.0388,0,0,0-.0645-.5391.9239.9239,0,0,0-.208-.39.8933.8933,0,0,0-.3721-.2344,1.735,1.735,0,0,0-.5625-.0791,2.2366,2.2366,0,0,0-.6416.085,3.4226,3.4226,0,0,0-.498.1875q-.2139.1024-.3574.1875a.4939.4939,0,0,1-.2139.0849.1443.1443,0,0,1-.082-.0234.2.2,0,0,1-.0616-.07.3667.3667,0,0,1-.0381-.12,1.2262,1.2262,0,0,1,.0088-.3926.3355.3355,0,0,1,.1-.1612,1.2823,1.2823,0,0,1,.2725-.1787,3.0063,3.0063,0,0,1,.4453-.1875,4.0483,4.0483,0,0,1,.5508-.1406,3.2894,3.2894,0,0,1,.6035-.0557,3.1672,3.1672,0,0,1,.9668.1289,1.5647,1.5647,0,0,1,.6445.378,1.4634,1.4634,0,0,1,.3575.6181,2.9941,2.9941,0,0,1,.1113.8614Zm-.9609-2.4082h-.8262a3.117,3.117,0,0,0-.6914.0674,1.4249,1.4249,0,0,0-.4864.1992.8237.8237,0,0,0-.2841.3164.95.95,0,0,0-.0909.4248.85.85,0,0,0,.2608.6533,1.0282,1.0282,0,0,0,.73.2432,1.3559,1.3559,0,0,0,.706-.1934,3.041,3.041,0,0,0,.6827-.5918Z"/><path d="M28.9308,153.4238q0,.0938-.0059.1641a.6667.6667,0,0,1-.0205.123.41.41,0,0,1-.0381.0938.517.517,0,0,1-.082.1,1.6913,1.6913,0,0,1-.2461.1787,2.9435,2.9435,0,0,1-.4658.2344,3.8811,3.8811,0,0,1-.6387.1934,3.6788,3.6788,0,0,1-.7881.0791,3.4577,3.4577,0,0,1-1.333-.2461,2.6924,2.6924,0,0,1-1.0137-.7266,3.3137,3.3137,0,0,1-.6445-1.1865,5.9535,5.9535,0,0,1,.0176-3.3076,3.6516,3.6516,0,0,1,.6826-1.251,2.9158,2.9158,0,0,1,1.0518-.7822,3.33,3.33,0,0,1,1.3564-.27,3.2812,3.2812,0,0,1,.6387.0615,4.0962,4.0962,0,0,1,.5742.1553,2.6082,2.6082,0,0,1,.4687.2168,1.5747,1.5747,0,0,1,.2842.2022.6788.6788,0,0,1,.1026.12.3972.3972,0,0,1,.038.0967.9531.9531,0,0,1,.0235.1318,1.6266,1.6266,0,0,1,.0088.1816,1.4407,1.4407,0,0,1-.0117.1993.5472.5472,0,0,1-.0357.1377.2079.2079,0,0,1-.0557.082.1218.1218,0,0,1-.0795.0264.4348.4348,0,0,1-.23-.1143,3.7737,3.7737,0,0,0-.38-.252,3.0613,3.0613,0,0,0-.5654-.2519,2.4661,2.4661,0,0,0-.7979-.1143,2.08,2.08,0,0,0-.9224.2022,1.944,1.944,0,0,0-.7094.5947,2.92,2.92,0,0,0-.4566.958,5.2515,5.2515,0,0,0-.0058,2.5664,2.6394,2.6394,0,0,0,.4477.9258,1.8715,1.8715,0,0,0,.7154.5625,2.32,2.32,0,0,0,.96.19,2.54,2.54,0,0,0,.792-.1113,3.0643,3.0643,0,0,0,.5771-.249,4.5915,4.5915,0,0,0,.3921-.249.4694.4694,0,0,1,.2412-.1114.1347.1347,0,0,1,.0708.0176.1246.1246,0,0,1,.0474.0674.6172.6172,0,0,1,.0264.1377Q28.9307,153.2891,28.9308,153.4238Z"/><path d="M35.06,151.6543a3.952,3.952,0,0,1-.17,1.1865,2.6178,2.6178,0,0,1-.5069.9346,2.2964,2.2964,0,0,1-.8437.6123,2.9316,2.9316,0,0,1-1.1748.22,3.0421,3.0421,0,0,1-1.1338-.1933,2.0715,2.0715,0,0,1-.8057-.5625,2.3845,2.3845,0,0,1-.48-.8965,4.1615,4.1615,0,0,1-.1582-1.1953,4.0146,4.0146,0,0,1,.167-1.1865,2.5833,2.5833,0,0,1,.5039-.9346,2.2726,2.2726,0,0,1,.8409-.6094,2.9615,2.9615,0,0,1,1.1777-.2168,3.0424,3.0424,0,0,1,1.1338.1934,2.0712,2.0712,0,0,1,.8056.5625,2.4148,2.4148,0,0,1,.4834.8965A4.0626,4.0626,0,0,1,35.06,151.6543Zm-1.002.0645a3.93,3.93,0,0,0-.08-.8086,1.9882,1.9882,0,0,0-.2627-.668,1.3078,1.3078,0,0,0-.497-.4541,1.6439,1.6439,0,0,0-.78-.167,1.6711,1.6711,0,0,0-.7422.1523,1.3664,1.3664,0,0,0-.5112.4307,1.9359,1.9359,0,0,0-.2984.6592,3.3544,3.3544,0,0,0-.0976.832,3.9326,3.9326,0,0,0,.08.8145,1.9109,1.9109,0,0,0,.2656.665,1.3422,1.3422,0,0,0,.5.4512,1.6471,1.6471,0,0,0,.7808.167,1.6716,1.6716,0,0,0,.7387-.1524,1.367,1.367,0,0,0,.5147-.4277,1.8629,1.8629,0,0,0,.2954-.6562A3.4787,3.4787,0,0,0,34.0577,151.7188Z"/><path d="M37.45,154.35a.1309.1309,0,0,1-.0234.0791.1846.1846,0,0,1-.0762.0557.5369.5369,0,0,1-.1465.0351,1.9839,1.9839,0,0,1-.24.0118,1.9231,1.9231,0,0,1-.2344-.0118.581.581,0,0,1-.1494-.0351.1611.1611,0,0,1-.0762-.0557.1441.1441,0,0,1-.02-.0791v-7.8281a.1592.1592,0,0,1,.02-.082.1523.1523,0,0,1,.0762-.0586.5764.5764,0,0,1,.1494-.0352,1.9462,1.9462,0,0,1,.2344-.0117,2.0076,2.0076,0,0,1,.24.0117.5328.5328,0,0,1,.1465.0352.1726.1726,0,0,1,.0762.0586.1443.1443,0,0,1,.0234.082Z"/><path d="M43.755,154.35a.145.145,0,0,1-.0205.0791.161.161,0,0,1-.0733.0557.5193.5193,0,0,1-.1377.0351,1.54,1.54,0,0,1-.208.0118,1.65,1.65,0,0,1-.22-.0118.4777.4777,0,0,1-.1348-.0351.1412.1412,0,0,1-.0673-.0557.1623.1623,0,0,1-.0176-.0791v-.6972a3.2853,3.2853,0,0,1-.8906.7265,1.9115,1.9115,0,0,1-.8907.2285,2.0159,2.0159,0,0,1-.8877-.1757,1.5607,1.5607,0,0,1-.583-.4776,1.9307,1.9307,0,0,1-.3193-.7031,4.226,4.226,0,0,1-.0967-.9756v-3.1992a.1441.1441,0,0,1,.02-.0791.1777.1777,0,0,1,.0791-.0586.4879.4879,0,0,1,.1524-.0352q.0938-.0087.2343-.0088t.2344.0088a.4542.4542,0,0,1,.1494.0352.2032.2032,0,0,1,.0791.0586.13.13,0,0,1,.0235.0791v3.07a3.27,3.27,0,0,0,.0673.7412,1.3865,1.3865,0,0,0,.2051.4746.9511.9511,0,0,0,.3487.3047,1.0619,1.0619,0,0,0,.4921.1084,1.2372,1.2372,0,0,0,.7237-.2578,4.1109,4.1109,0,0,0,.7646-.7559v-3.6855a.145.145,0,0,1,.02-.0791.1777.1777,0,0,1,.0791-.0586.4812.4812,0,0,1,.1495-.0352q.0908-.0087.2373-.0088.1405,0,.2343.0088a.4231.4231,0,0,1,.1465.0352.238.238,0,0,1,.0791.0586.1207.1207,0,0,1,.0264.0791Z"/><path d="M53.3644,154.35a.131.131,0,0,1-.0235.0791.1835.1835,0,0,1-.0761.0557.5369.5369,0,0,1-.1465.0351,1.9242,1.9242,0,0,1-.2344.0118,1.9828,1.9828,0,0,1-.24-.0118.5829.5829,0,0,1-.15-.0351.1831.1831,0,0,1-.0791-.0557.1309.1309,0,0,1-.0234-.0791v-3.2051a2.9307,2.9307,0,0,0-.0586-.6093,1.4047,1.4047,0,0,0-.1875-.4746.8736.8736,0,0,0-.3281-.3047.9884.9884,0,0,0-.4688-.1055,1.1034,1.1034,0,0,0-.6709.2578,4.6335,4.6335,0,0,0-.7412.7559V154.35a.1309.1309,0,0,1-.0234.0791.1825.1825,0,0,1-.0791.0557.581.581,0,0,1-.1494.0351,2.3042,2.3042,0,0,1-.4658,0,.5871.5871,0,0,1-.1524-.0351.1611.1611,0,0,1-.0762-.0557.145.145,0,0,1-.02-.0791v-3.2051a2.68,2.68,0,0,0-.0644-.6093,1.4922,1.4922,0,0,0-.1934-.4746.88.88,0,0,0-.3252-.3047.9705.9705,0,0,0-.4658-.1055,1.115,1.115,0,0,0-.6738.2578,4.4,4.4,0,0,0-.7383.7559V154.35a.1309.1309,0,0,1-.0234.0791.1846.1846,0,0,1-.0762.0557.5369.5369,0,0,1-.1465.0351,1.9839,1.9839,0,0,1-.24.0118,1.9231,1.9231,0,0,1-.2344-.0118.581.581,0,0,1-.1494-.0351.1611.1611,0,0,1-.0762-.0557.1441.1441,0,0,1-.0205-.0791v-5.2734a.1634.1634,0,0,1,.0176-.0791.1557.1557,0,0,1,.07-.0586.3977.3977,0,0,1,.1348-.0352,2.14,2.14,0,0,1,.2167-.0088q.129,0,.2139.0088a.3465.3465,0,0,1,.1319.0352.1844.1844,0,0,1,.0673.0586.1441.1441,0,0,1,.0205.0791v.6972a3.4247,3.4247,0,0,1,.8643-.7294,1.7345,1.7345,0,0,1,.8467-.2315,2.0986,2.0986,0,0,1,.5888.0762,1.5827,1.5827,0,0,1,.46.2139,1.4273,1.4273,0,0,1,.34.3281,1.8968,1.8968,0,0,1,.2343.4248,5.4423,5.4423,0,0,1,.501-.4863,2.9894,2.9894,0,0,1,.457-.3223,1.869,1.869,0,0,1,.4278-.1787,1.614,1.614,0,0,1,.4189-.0557,1.8494,1.8494,0,0,1,.8555.1787,1.5509,1.5509,0,0,1,.56.4776,1.9141,1.9141,0,0,1,.3046.7,3.8232,3.8232,0,0,1,.0909.8466Z"/><path d="M59.669,154.35a.1309.1309,0,0,1-.0234.0791.1832.1832,0,0,1-.0762.0557.5351.5351,0,0,1-.1464.0351,1.9242,1.9242,0,0,1-.2344.0118,1.9846,1.9846,0,0,1-.24-.0118.5351.5351,0,0,1-.1464-.0351.1832.1832,0,0,1-.0762-.0557.1309.1309,0,0,1-.0234-.0791v-3.0879a3.0331,3.0331,0,0,0-.07-.7265,1.5028,1.5028,0,0,0-.205-.4746.889.889,0,0,0-.3487-.3047,1.1062,1.1062,0,0,0-.4951-.1055,1.25,1.25,0,0,0-.7266.2578,3.94,3.94,0,0,0-.7617.7559V154.35a.1309.1309,0,0,1-.0234.0791.1832.1832,0,0,1-.0762.0557.5359.5359,0,0,1-.1465.0351,1.9828,1.9828,0,0,1-.24.0118,1.9242,1.9242,0,0,1-.2344-.0118.581.581,0,0,1-.1494-.0351.1611.1611,0,0,1-.0762-.0557.145.145,0,0,1-.02-.0791v-5.2734a.1634.1634,0,0,1,.0176-.0791.1563.1563,0,0,1,.07-.0586.3984.3984,0,0,1,.1348-.0352,2.1424,2.1424,0,0,1,.2168-.0088q.1288,0,.2139.0088a.3465.3465,0,0,1,.1318.0352.1856.1856,0,0,1,.0674.0586.145.145,0,0,1,.02.0791v.6972a3.2425,3.2425,0,0,1,.8877-.7294,1.91,1.91,0,0,1,.8935-.2315,1.9863,1.9863,0,0,1,.8877.1787,1.597,1.597,0,0,1,.583.4776,1.902,1.902,0,0,1,.3194.7,4.17,4.17,0,0,1,.0966.9638Z"/><path d="M70.087,150.5938a5.3111,5.3111,0,0,1-.2519,1.72,3.1227,3.1227,0,0,1-.7354,1.2187,3.0387,3.0387,0,0,1-1.1865.7237,5.2034,5.2034,0,0,1-1.6758.24H64.6319a.4155.4155,0,0,1-.2548-.0908.3767.3767,0,0,1-.12-.3194v-6.7617a.3765.3765,0,0,1,.12-.3193.4149.4149,0,0,1,.2548-.0908h1.7168a4.7608,4.7608,0,0,1,1.6641.2549,3.0332,3.0332,0,0,1,1.14.7324,3.1277,3.1277,0,0,1,.6973,1.1572A4.64,4.64,0,0,1,70.087,150.5938Zm-1.0605.041a4.1315,4.1315,0,0,0-.1524-1.1455,2.4589,2.4589,0,0,0-.4775-.917,2.2062,2.2062,0,0,0-.8233-.6035,3.24,3.24,0,0,0-1.2832-.2168H65.2648v5.9h1.0371a3.5983,3.5983,0,0,0,1.2246-.1817,2.02,2.02,0,0,0,.832-.5566,2.422,2.422,0,0,0,.501-.94A4.7563,4.7563,0,0,0,69.0265,150.6348Z"/><path d="M75.5011,154.3555a.1231.1231,0,0,1-.0469.1054.3272.3272,0,0,1-.1289.0528,1.2306,1.2306,0,0,1-.24.0176,1.3363,1.3363,0,0,1-.2432-.0176.2873.2873,0,0,1-.1318-.0528.1309.1309,0,0,1-.0411-.1054v-.5274a2.6042,2.6042,0,0,1-.77.5743,2.0429,2.0429,0,0,1-.8994.205,2.45,2.45,0,0,1-.7529-.1084,1.6281,1.6281,0,0,1-.5742-.3134,1.4073,1.4073,0,0,1-.3692-.5039,1.6682,1.6682,0,0,1-.1318-.68,1.5725,1.5725,0,0,1,.1816-.7735,1.5112,1.5112,0,0,1,.5215-.5449,2.5638,2.5638,0,0,1,.8321-.3252,5.1636,5.1636,0,0,1,1.1074-.1084H74.54v-.41a2.0379,2.0379,0,0,0-.0644-.5391.9243.9243,0,0,0-.208-.39.8931.8931,0,0,0-.3721-.2343,1.7323,1.7323,0,0,0-.5625-.0791,2.24,2.24,0,0,0-.6416.0849,3.4414,3.4414,0,0,0-.498.1875q-.2139.1026-.3575.1875a.4929.4929,0,0,1-.2138.085.1448.1448,0,0,1-.0821-.0234.201.201,0,0,1-.0615-.07.36.36,0,0,1-.0381-.12,1.2262,1.2262,0,0,1,.0088-.3926.3357.3357,0,0,1,.1-.1611,1.2784,1.2784,0,0,1,.2725-.1787,2.9851,2.9851,0,0,1,.4453-.1875,4.0483,4.0483,0,0,1,.5508-.1406,3.2894,3.2894,0,0,1,.6035-.0557,3.1672,3.1672,0,0,1,.9668.1289,1.5646,1.5646,0,0,1,.6445.3779,1.4644,1.4644,0,0,1,.3575.6182,2.9939,2.9939,0,0,1,.1113.8613Zm-.961-2.4082H73.714a3.11,3.11,0,0,0-.6914.0674,1.4241,1.4241,0,0,0-.4864.1992.823.823,0,0,0-.2841.3164.9493.9493,0,0,0-.0909.4248.85.85,0,0,0,.2608.6533,1.0286,1.0286,0,0,0,.73.2432,1.3569,1.3569,0,0,0,.706-.1934,3.0412,3.0412,0,0,0,.6826-.5918Z"/><path d="M79.9073,153.9629a1.2287,1.2287,0,0,1-.0234.27.3021.3021,0,0,1-.07.1465.4581.4581,0,0,1-.1406.0879,1.1458,1.1458,0,0,1-.2139.0674q-.12.0264-.2549.0439a2.067,2.067,0,0,1-.2695.0176,2.03,2.03,0,0,1-.7032-.1084,1.1354,1.1354,0,0,1-.48-.3281,1.3528,1.3528,0,0,1-.2725-.5566,3.2774,3.2774,0,0,1-.0849-.794v-3.082h-.7383a.1581.1581,0,0,1-.1406-.0938.6535.6535,0,0,1-.0528-.3047,1.0105,1.0105,0,0,1,.0147-.1875.5316.5316,0,0,1,.0381-.1259.1473.1473,0,0,1,.0615-.07.177.177,0,0,1,.0849-.02h.7325V147.67a.148.148,0,0,1,.02-.0761.1666.1666,0,0,1,.0761-.0616.5036.5036,0,0,1,.1495-.038,1.9224,1.9224,0,0,1,.2343-.0118,1.9846,1.9846,0,0,1,.24.0118.4651.4651,0,0,1,.1464.038.191.191,0,0,1,.0762.0616.1347.1347,0,0,1,.0235.0761v1.2539H79.714a.16.16,0,0,1,.082.02.1714.1714,0,0,1,.0615.07.3994.3994,0,0,1,.0381.1259,1.2641,1.2641,0,0,1,.0117.1875.6537.6537,0,0,1-.0527.3047.1582.1582,0,0,1-.1406.0938H78.3605v2.9414a1.676,1.676,0,0,0,.1611.8232.61.61,0,0,0,.5771.2783.9931.9931,0,0,0,.24-.0263q.1055-.0264.1875-.0557t.1406-.0557a.2622.2622,0,0,1,.1055-.0263.1135.1135,0,0,1,.0556.0146.0971.0971,0,0,1,.041.0557.6654.6654,0,0,1,.0264.1113A1.1,1.1,0,0,1,79.9073,153.9629Z"/><path d="M85.0108,154.3555a.1233.1233,0,0,1-.0468.1054.3278.3278,0,0,1-.1289.0528,1.231,1.231,0,0,1-.24.0176,1.3358,1.3358,0,0,1-.2431-.0176.2878.2878,0,0,1-.1319-.0528.1312.1312,0,0,1-.041-.1054v-.5274a2.6055,2.6055,0,0,1-.77.5743,2.0429,2.0429,0,0,1-.8994.205,2.4494,2.4494,0,0,1-.7529-.1084,1.6286,1.6286,0,0,1-.5743-.3134,1.407,1.407,0,0,1-.3691-.5039,1.6682,1.6682,0,0,1-.1318-.68,1.5725,1.5725,0,0,1,.1816-.7735,1.51,1.51,0,0,1,.5215-.5449,2.5641,2.5641,0,0,1,.832-.3252,5.1643,5.1643,0,0,1,1.1074-.1084H84.05v-.41a2.0421,2.0421,0,0,0-.0644-.5391.9245.9245,0,0,0-.2081-.39.8934.8934,0,0,0-.372-.2343,1.7332,1.7332,0,0,0-.5625-.0791,2.24,2.24,0,0,0-.6416.0849,3.4429,3.4429,0,0,0-.4981.1875q-.2139.1026-.3574.1875a.4927.4927,0,0,1-.2139.085.1445.1445,0,0,1-.082-.0234.201.201,0,0,1-.0615-.07.36.36,0,0,1-.0381-.12,1.2262,1.2262,0,0,1,.0088-.3926.3357.3357,0,0,1,.1-.1611,1.2757,1.2757,0,0,1,.2725-.1787,2.9851,2.9851,0,0,1,.4453-.1875,4.0407,4.0407,0,0,1,.5508-.1406,3.2886,3.2886,0,0,1,.6035-.0557,3.1676,3.1676,0,0,1,.9668.1289,1.5652,1.5652,0,0,1,.6445.3779,1.4632,1.4632,0,0,1,.3574.6182,2.9939,2.9939,0,0,1,.1113.8613Zm-.9609-2.4082h-.8262a3.111,3.111,0,0,0-.6914.0674,1.4235,1.4235,0,0,0-.4863.1992.8241.8241,0,0,0-.2842.3164.9507.9507,0,0,0-.0908.4248.85.85,0,0,0,.2607.6533,1.0288,1.0288,0,0,0,.7295.2432,1.3572,1.3572,0,0,0,.7061-.1934,3.0433,3.0433,0,0,0,.6826-.5918Z"/><path d="M15.713,69.88q0,.0938-.0059.1641a.67.67,0,0,1-.0205.123.4033.4033,0,0,1-.0381.0938.5132.5132,0,0,1-.082.1,1.6991,1.6991,0,0,1-.2461.1787,2.9353,2.9353,0,0,1-.4658.2343,3.8685,3.8685,0,0,1-.6387.1934,3.6788,3.6788,0,0,1-.7881.0791,3.4558,3.4558,0,0,1-1.333-.2461,2.6908,2.6908,0,0,1-1.0136-.7265,3.3152,3.3152,0,0,1-.6446-1.1866,5.9535,5.9535,0,0,1,.0176-3.3076,3.6533,3.6533,0,0,1,.6826-1.251,2.9178,2.9178,0,0,1,1.0518-.7822,3.33,3.33,0,0,1,1.3564-.27,3.28,3.28,0,0,1,.6387.0615,4.0825,4.0825,0,0,1,.5742.1553,2.6056,2.6056,0,0,1,.4688.2168,1.5826,1.5826,0,0,1,.2841.2021.6816.6816,0,0,1,.1026.12.4029.4029,0,0,1,.0381.0967.9712.9712,0,0,1,.0234.1319,1.6016,1.6016,0,0,1,.0088.1816,1.44,1.44,0,0,1-.0117.1992.52.52,0,0,1-.0362.1377.2071.2071,0,0,1-.0556.082.1209.1209,0,0,1-.0791.0264.4332.4332,0,0,1-.2295-.1143,3.7945,3.7945,0,0,0-.3809-.2519,3.0282,3.0282,0,0,0-.5654-.252,2.4669,2.4669,0,0,0-.7979-.1142,2.0768,2.0768,0,0,0-.9218.2021,1.9412,1.9412,0,0,0-.71.5948,2.9085,2.9085,0,0,0-.456.958,5.25,5.25,0,0,0-.0059,2.5664,2.6389,2.6389,0,0,0,.4473.9258,1.869,1.869,0,0,0,.7158.5625,2.3177,2.3177,0,0,0,.96.19,2.5378,2.5378,0,0,0,.792-.1113,3.0462,3.0462,0,0,0,.5772-.2491,4.6258,4.6258,0,0,0,.3926-.249.4675.4675,0,0,1,.2412-.1113.1334.1334,0,0,1,.07.0176.1278.1278,0,0,1,.0478.0673.6115.6115,0,0,1,.0264.1377Q15.7131,69.7451,15.713,69.88Z"/><path d="M21.8419,68.11a3.9488,3.9488,0,0,1-.17,1.1865,2.618,2.618,0,0,1-.5069.9346,2.2964,2.2964,0,0,1-.8437.6123,2.9333,2.9333,0,0,1-1.1748.22,3.0424,3.0424,0,0,1-1.1338-.1934,2.0715,2.0715,0,0,1-.8057-.5625,2.383,2.383,0,0,1-.48-.8965,4.1575,4.1575,0,0,1-.1582-1.1953,4.0114,4.0114,0,0,1,.167-1.1865,2.5835,2.5835,0,0,1,.5039-.9346,2.272,2.272,0,0,1,.8408-.6093,2.96,2.96,0,0,1,1.1777-.2168,3.0425,3.0425,0,0,1,1.1338.1933,2.0715,2.0715,0,0,1,.8057.5625,2.4176,2.4176,0,0,1,.4834.8965A4.0672,4.0672,0,0,1,21.8419,68.11Zm-1.002.0644a3.9724,3.9724,0,0,0-.08-.8086,2,2,0,0,0-.2627-.6679A1.3117,1.3117,0,0,0,20,66.2442a1.6438,1.6438,0,0,0-.78-.167,1.6686,1.6686,0,0,0-.7422.1523,1.3671,1.3671,0,0,0-.5117.4307,1.9224,1.9224,0,0,0-.2978.6591,3.3276,3.3276,0,0,0-.0977.8321,3.9324,3.9324,0,0,0,.08.8144,1.9122,1.9122,0,0,0,.2656.6651,1.3413,1.3413,0,0,0,.499.4511,1.6483,1.6483,0,0,0,.7813.167,1.6716,1.6716,0,0,0,.7383-.1523,1.3638,1.3638,0,0,0,.5146-.4277,1.873,1.873,0,0,0,.2959-.6563A3.5028,3.5028,0,0,0,20.84,68.1748Z"/><path d="M24.2325,70.8057a.1311.1311,0,0,1-.0234.0791.1831.1831,0,0,1-.0762.0556.5319.5319,0,0,1-.1465.0352,2.0065,2.0065,0,0,1-.24.0117,1.9462,1.9462,0,0,1-.2344-.0117.5764.5764,0,0,1-.1494-.0352.161.161,0,0,1-.0762-.0556.1452.1452,0,0,1-.0205-.0791V62.9776a.1608.1608,0,0,1,.0205-.0821.1534.1534,0,0,1,.0762-.0586.581.581,0,0,1,.1494-.0351,1.9462,1.9462,0,0,1,.2344-.0117,2.0065,2.0065,0,0,1,.24.0117.5359.5359,0,0,1,.1465.0351.1728.1728,0,0,1,.0762.0586.1448.1448,0,0,1,.0234.0821Z"/><path d="M30.5372,70.8057a.1443.1443,0,0,1-.02.0791.1611.1611,0,0,1-.0732.0556.5172.5172,0,0,1-.1377.0352,1.56,1.56,0,0,1-.208.0117,1.6712,1.6712,0,0,1-.22-.0117.4732.4732,0,0,1-.1347-.0352.1414.1414,0,0,1-.0674-.0556.1637.1637,0,0,1-.0176-.0791v-.6973a3.2877,3.2877,0,0,1-.8906.7266,1.9126,1.9126,0,0,1-.8906.2285,2.0138,2.0138,0,0,1-.8877-.1758,1.56,1.56,0,0,1-.583-.4775,1.9313,1.9313,0,0,1-.3194-.7032,4.23,4.23,0,0,1-.0967-.9755V65.5322a.1452.1452,0,0,1,.02-.0791.1785.1785,0,0,1,.0791-.0586.4881.4881,0,0,1,.1524-.0351q.0938-.0088.2344-.0088t.2343.0088a.4558.4558,0,0,1,.1495.0351.2049.2049,0,0,1,.0791.0586.1311.1311,0,0,1,.0234.0791v3.07a3.27,3.27,0,0,0,.0674.7412,1.3862,1.3862,0,0,0,.2051.4746.9525.9525,0,0,0,.3486.3047,1.0636,1.0636,0,0,0,.4922.1084,1.2368,1.2368,0,0,0,.7236-.2579,4.1132,4.1132,0,0,0,.7647-.7558V65.5322a.1443.1443,0,0,1,.0205-.0791.1773.1773,0,0,1,.0791-.0586.48.48,0,0,1,.1494-.0351q.0907-.0088.2373-.0088.1406,0,.2344.0088a.4226.4226,0,0,1,.1464.0351.2383.2383,0,0,1,.0791.0586.1209.1209,0,0,1,.0264.0791Z"/><path d="M40.1466,70.8057a.1305.1305,0,0,1-.0235.0791.1834.1834,0,0,1-.0761.0556.5328.5328,0,0,1-.1465.0352,1.9462,1.9462,0,0,1-.2344.0117,2.0076,2.0076,0,0,1-.24-.0117.5764.5764,0,0,1-.1494-.0352.1824.1824,0,0,1-.0791-.0556.1305.1305,0,0,1-.0235-.0791V67.6006a2.931,2.931,0,0,0-.0586-.6094,1.4006,1.4006,0,0,0-.1875-.4746.8744.8744,0,0,0-.3281-.3047.9883.9883,0,0,0-.4687-.1054,1.1032,1.1032,0,0,0-.6709.2578,4.6283,4.6283,0,0,0-.7412.7558v3.6856a.1312.1312,0,0,1-.0235.0791.1824.1824,0,0,1-.0791.0556.5764.5764,0,0,1-.1494.0352,2.3238,2.3238,0,0,1-.4658,0,.5825.5825,0,0,1-.1524-.0352.16.16,0,0,1-.0761-.0556.1443.1443,0,0,1-.02-.0791V67.6006a2.6744,2.6744,0,0,0-.0645-.6094,1.4922,1.4922,0,0,0-.1934-.4746.8808.8808,0,0,0-.3252-.3047.9705.9705,0,0,0-.4658-.1054,1.1154,1.1154,0,0,0-.6738.2578,4.3986,4.3986,0,0,0-.7383.7558v3.6856a.1311.1311,0,0,1-.0234.0791.1831.1831,0,0,1-.0762.0556.5319.5319,0,0,1-.1465.0352,2.0076,2.0076,0,0,1-.24.0117,1.9462,1.9462,0,0,1-.2344-.0117.5764.5764,0,0,1-.1494-.0352.161.161,0,0,1-.0762-.0556.1452.1452,0,0,1-.02-.0791V65.5322a.1637.1637,0,0,1,.0176-.0791.1569.1569,0,0,1,.07-.0586.3985.3985,0,0,1,.1348-.0351,2.638,2.638,0,0,1,.4306,0,.3467.3467,0,0,1,.1319.0351.1865.1865,0,0,1,.0674.0586.1452.1452,0,0,1,.02.0791V66.23a3.4234,3.4234,0,0,1,.8642-.73,1.7343,1.7343,0,0,1,.8467-.2314,2.1031,2.1031,0,0,1,.5889.0761,1.5833,1.5833,0,0,1,.46.2139,1.4311,1.4311,0,0,1,.34.3281,1.9015,1.9015,0,0,1,.2344.4248,5.43,5.43,0,0,1,.5009-.4863,3.004,3.004,0,0,1,.4571-.3223,1.8665,1.8665,0,0,1,.4277-.1787,1.6144,1.6144,0,0,1,.4189-.0556,1.8481,1.8481,0,0,1,.8555.1787,1.5506,1.5506,0,0,1,.56.4775,1.9143,1.9143,0,0,1,.3047.7,3.83,3.83,0,0,1,.0908.8467Z"/><path d="M46.4513,70.8057a.1305.1305,0,0,1-.0235.0791.1834.1834,0,0,1-.0761.0556.5328.5328,0,0,1-.1465.0352,1.9462,1.9462,0,0,1-.2344.0117,2.0065,2.0065,0,0,1-.24-.0117.5319.5319,0,0,1-.1465-.0352.1831.1831,0,0,1-.0762-.0556.1311.1311,0,0,1-.0234-.0791V67.7178a3.04,3.04,0,0,0-.07-.7266,1.5052,1.5052,0,0,0-.2051-.4746.89.89,0,0,0-.3486-.3047,1.1066,1.1066,0,0,0-.4952-.1054,1.25,1.25,0,0,0-.7265.2578,3.9334,3.9334,0,0,0-.7617.7558v3.6856a.1312.1312,0,0,1-.0235.0791.1831.1831,0,0,1-.0762.0556.531.531,0,0,1-.1464.0352,2.0083,2.0083,0,0,1-.24.0117,1.9455,1.9455,0,0,1-.2343-.0117.5773.5773,0,0,1-.1495-.0352.16.16,0,0,1-.0761-.0556.1443.1443,0,0,1-.02-.0791V65.5322a.1637.1637,0,0,1,.0175-.0791.1575.1575,0,0,1,.07-.0586.3985.3985,0,0,1,.1348-.0351,2.6393,2.6393,0,0,1,.4307,0,.3461.3461,0,0,1,.1318.0351.1857.1857,0,0,1,.0674.0586.1443.1443,0,0,1,.02.0791V66.23a3.243,3.243,0,0,1,.8877-.73,1.91,1.91,0,0,1,.8936-.2314,1.9855,1.9855,0,0,1,.8877.1787,1.5984,1.5984,0,0,1,.583.4775,1.9035,1.9035,0,0,1,.3193.7,4.171,4.171,0,0,1,.0967.9639Z"/><path d="M56.8692,67.05a5.308,5.308,0,0,1-.2519,1.72,3.1231,3.1231,0,0,1-.7354,1.2188,3.0359,3.0359,0,0,1-1.1865.7236,5.2,5.2,0,0,1-1.6758.24H51.4142a.4153.4153,0,0,1-.2549-.0909.3765.3765,0,0,1-.12-.3193V63.78a.3767.3767,0,0,1,.12-.3194.4158.4158,0,0,1,.2549-.0908H53.131a4.763,4.763,0,0,1,1.664.2549,3.0356,3.0356,0,0,1,1.14.7324,3.1293,3.1293,0,0,1,.6972,1.1573A4.64,4.64,0,0,1,56.8692,67.05Zm-1.06.041a4.1358,4.1358,0,0,0-.1523-1.1455,2.46,2.46,0,0,0-.4776-.917,2.2067,2.2067,0,0,0-.8232-.6035,3.2421,3.2421,0,0,0-1.2832-.2168H52.047v5.9h1.0371a3.5977,3.5977,0,0,0,1.2246-.1816,2.02,2.02,0,0,0,.832-.5567,2.42,2.42,0,0,0,.501-.94A4.7571,4.7571,0,0,0,55.8087,67.0908Z"/><path d="M62.2833,70.8115a.1233.1233,0,0,1-.0469.1055.3287.3287,0,0,1-.1289.0527,1.222,1.222,0,0,1-.24.0176,1.328,1.328,0,0,1-.2432-.0176.2885.2885,0,0,1-.1318-.0527.1311.1311,0,0,1-.041-.1055v-.5273a2.6034,2.6034,0,0,1-.7705.5742,2.043,2.043,0,0,1-.8994.2051,2.45,2.45,0,0,1-.753-.1084,1.63,1.63,0,0,1-.5742-.3135,1.4062,1.4062,0,0,1-.3691-.5039,1.6679,1.6679,0,0,1-.1319-.68,1.5719,1.5719,0,0,1,.1817-.7734,1.51,1.51,0,0,1,.5215-.5449,2.5587,2.5587,0,0,1,.832-.3252,5.1636,5.1636,0,0,1,1.1074-.1084h.7266v-.41a2.0388,2.0388,0,0,0-.0645-.5391.9239.9239,0,0,0-.208-.39.8943.8943,0,0,0-.3721-.2344,1.735,1.735,0,0,0-.5625-.0791,2.2371,2.2371,0,0,0-.6416.085,3.4226,3.4226,0,0,0-.498.1875q-.2139.1024-.3574.1875a.4935.4935,0,0,1-.2139.0849.1443.1443,0,0,1-.082-.0234.2.2,0,0,1-.0616-.07.3644.3644,0,0,1-.038-.12,1.0139,1.0139,0,0,1-.0118-.1612,1.0341,1.0341,0,0,1,.02-.2314.3347.3347,0,0,1,.1-.1611,1.2706,1.2706,0,0,1,.2724-.1787,2.99,2.99,0,0,1,.4453-.1875,4.0333,4.0333,0,0,1,.5508-.1407,3.2893,3.2893,0,0,1,.6035-.0556,3.1641,3.1641,0,0,1,.9668.1289,1.5645,1.5645,0,0,1,.6446.3779,1.4636,1.4636,0,0,1,.3574.6182,2.9939,2.9939,0,0,1,.1113.8613Zm-.9609-2.4082h-.8262a3.117,3.117,0,0,0-.6914.0674,1.4235,1.4235,0,0,0-.4863.1992.824.824,0,0,0-.2842.3164.95.95,0,0,0-.0908.4248.8505.8505,0,0,0,.2607.6534,1.0286,1.0286,0,0,0,.73.2431,1.3571,1.3571,0,0,0,.7061-.1933,3.0455,3.0455,0,0,0,.6826-.5918Z"/><path d="M66.69,70.419a1.2284,1.2284,0,0,1-.0235.27.3017.3017,0,0,1-.07.1465.4607.4607,0,0,1-.1406.0879,1.1459,1.1459,0,0,1-.2139.0673q-.12.0264-.2549.044a2.0847,2.0847,0,0,1-.27.0176,2.0321,2.0321,0,0,1-.7031-.1084,1.1368,1.1368,0,0,1-.4805-.3282,1.3522,1.3522,0,0,1-.2725-.5566,3.2766,3.2766,0,0,1-.0849-.7939V66.1826h-.7383a.1579.1579,0,0,1-.1406-.0937.6537.6537,0,0,1-.0528-.3047,1.0105,1.0105,0,0,1,.0147-.1875.5405.5405,0,0,1,.0381-.126.1471.1471,0,0,1,.0615-.07.176.176,0,0,1,.085-.02h.7324V64.126a.1484.1484,0,0,1,.02-.0762.168.168,0,0,1,.0762-.0615.5.5,0,0,1,.1494-.0381,1.9462,1.9462,0,0,1,.2344-.0117,2.0076,2.0076,0,0,1,.24.0117.4636.4636,0,0,1,.1465.0381.192.192,0,0,1,.0761.0615.1342.1342,0,0,1,.0235.0762V65.38h1.3535a.16.16,0,0,1,.082.02.17.17,0,0,1,.0616.07.402.402,0,0,1,.038.126,1.2625,1.2625,0,0,1,.0118.1875.6537.6537,0,0,1-.0528.3047.1579.1579,0,0,1-.1406.0937H65.1427V69.124a1.6767,1.6767,0,0,0,.1611.8233.61.61,0,0,0,.5772.2783.9926.9926,0,0,0,.24-.0264q.1055-.0262.1875-.0556t.1406-.0557a.2609.2609,0,0,1,.1055-.0264.1129.1129,0,0,1,.0557.0147.0977.0977,0,0,1,.041.0556.681.681,0,0,1,.0263.1114A1.0973,1.0973,0,0,1,66.69,70.419Z"/><path d="M71.7931,70.8115a.1236.1236,0,0,1-.0469.1055.3293.3293,0,0,1-.1289.0527,1.2227,1.2227,0,0,1-.24.0176,1.3273,1.3273,0,0,1-.2432-.0176.288.288,0,0,1-.1318-.0527.1311.1311,0,0,1-.0411-.1055v-.5273a2.6022,2.6022,0,0,1-.77.5742,2.043,2.043,0,0,1-.8994.2051,2.45,2.45,0,0,1-.7529-.1084,1.63,1.63,0,0,1-.5742-.3135,1.4064,1.4064,0,0,1-.3692-.5039,1.6679,1.6679,0,0,1-.1318-.68,1.5718,1.5718,0,0,1,.1816-.7734,1.51,1.51,0,0,1,.5215-.5449,2.56,2.56,0,0,1,.832-.3252,5.1653,5.1653,0,0,1,1.1075-.1084h.7265v-.41a2.0432,2.0432,0,0,0-.0644-.5391.9239.9239,0,0,0-.208-.39.8949.8949,0,0,0-.3721-.2344,1.735,1.735,0,0,0-.5625-.0791,2.2366,2.2366,0,0,0-.6416.085,3.4137,3.4137,0,0,0-.498.1875q-.2139.1024-.3575.1875a.4937.4937,0,0,1-.2138.0849.1448.1448,0,0,1-.0821-.0234.2006.2006,0,0,1-.0615-.07.362.362,0,0,1-.0381-.12,1.2262,1.2262,0,0,1,.0088-.3926.3353.3353,0,0,1,.1-.1611,1.2745,1.2745,0,0,1,.2725-.1787,2.9851,2.9851,0,0,1,.4453-.1875,4.0333,4.0333,0,0,1,.5508-.1407,3.2893,3.2893,0,0,1,.6035-.0556,3.1641,3.1641,0,0,1,.9668.1289,1.5635,1.5635,0,0,1,.6445.3779,1.4626,1.4626,0,0,1,.3574.6182,2.99,2.99,0,0,1,.1114.8613Zm-.961-2.4082H70.006a3.1164,3.1164,0,0,0-.6914.0674,1.4232,1.4232,0,0,0-.4864.1992.8248.8248,0,0,0-.2842.3164.9513.9513,0,0,0-.0908.4248.85.85,0,0,0,.2608.6534,1.0286,1.0286,0,0,0,.73.2431,1.3568,1.3568,0,0,0,.706-.1933,3.0412,3.0412,0,0,0,.6826-.5918Z"/><path d="M53.8658,29.34q0,.0938-.0058.164a.6779.6779,0,0,1-.02.1231.4113.4113,0,0,1-.0381.0937.5122.5122,0,0,1-.0821.1,1.6778,1.6778,0,0,1-.2461.1787,2.9391,2.9391,0,0,1-.4658.2344,3.8769,3.8769,0,0,1-.6386.1934,3.68,3.68,0,0,1-.7881.0791,3.4573,3.4573,0,0,1-1.333-.2461,2.6924,2.6924,0,0,1-1.0137-.7266,3.3122,3.3122,0,0,1-.6445-1.1865,5.9547,5.9547,0,0,1,.0175-3.3076,3.6518,3.6518,0,0,1,.6827-1.251,2.9166,2.9166,0,0,1,1.0517-.7822,3.3307,3.3307,0,0,1,1.3565-.27,3.2717,3.2717,0,0,1,.6386.0616,4.0753,4.0753,0,0,1,.5742.1552,2.6092,2.6092,0,0,1,.4688.2168,1.5873,1.5873,0,0,1,.2842.2022.6807.6807,0,0,1,.1025.12.4013.4013,0,0,1,.0381.0967.94.94,0,0,1,.0234.1318,1.6035,1.6035,0,0,1,.0088.1817,1.44,1.44,0,0,1-.0117.1992.541.541,0,0,1-.0356.1377.2089.2089,0,0,1-.0557.082.122.122,0,0,1-.08.0264.4351.4351,0,0,1-.23-.1143,3.7634,3.7634,0,0,0-.38-.2519,3.0551,3.0551,0,0,0-.5654-.252,2.4659,2.4659,0,0,0-.7978-.1143,2.08,2.08,0,0,0-.9224.2022,1.9444,1.9444,0,0,0-.7095.5947,2.92,2.92,0,0,0-.4565.958,5.2531,5.2531,0,0,0-.0059,2.5664,2.64,2.64,0,0,0,.4478.9258,1.8693,1.8693,0,0,0,.7153.5625,2.32,2.32,0,0,0,.96.19,2.54,2.54,0,0,0,.792-.1113,3.07,3.07,0,0,0,.5771-.249,4.5915,4.5915,0,0,0,.3921-.249.47.47,0,0,1,.2412-.1114.135.135,0,0,1,.0708.0176.1251.1251,0,0,1,.0474.0674.6123.6123,0,0,1,.0263.1377Q53.8659,29.2051,53.8658,29.34Z"/><path d="M59.9947,27.57a3.9488,3.9488,0,0,1-.17,1.1865,2.6176,2.6176,0,0,1-.5068.9346,2.2968,2.2968,0,0,1-.8438.6123,2.9316,2.9316,0,0,1-1.1748.22,3.0425,3.0425,0,0,1-1.1338-.1933,2.0712,2.0712,0,0,1-.8056-.5625,2.3831,2.3831,0,0,1-.48-.8965,4.158,4.158,0,0,1-.1582-1.1953,4.0146,4.0146,0,0,1,.167-1.1865,2.5818,2.5818,0,0,1,.5039-.9346,2.2741,2.2741,0,0,1,.8408-.6094,2.9619,2.9619,0,0,1,1.1777-.2168,3.0421,3.0421,0,0,1,1.1338.1934,2.0708,2.0708,0,0,1,.8057.5625,2.4162,2.4162,0,0,1,.4834.8965A4.0661,4.0661,0,0,1,59.9947,27.57Zm-1.0019.0645a3.9365,3.9365,0,0,0-.08-.8086,1.9882,1.9882,0,0,0-.2627-.668,1.3088,1.3088,0,0,0-.4971-.4541,1.6435,1.6435,0,0,0-.78-.167,1.67,1.67,0,0,0-.7422.1524,1.3648,1.3648,0,0,0-.5113.4306,1.9358,1.9358,0,0,0-.2983.6592,3.3549,3.3549,0,0,0-.0977.832,3.9326,3.9326,0,0,0,.08.8145,1.911,1.911,0,0,0,.2657.665,1.3422,1.3422,0,0,0,.4995.4512,1.6467,1.6467,0,0,0,.7807.167,1.6737,1.6737,0,0,0,.7388-.1523,1.3671,1.3671,0,0,0,.5146-.4278,1.8631,1.8631,0,0,0,.2955-.6562A3.4826,3.4826,0,0,0,58.9928,27.6348Z"/><path d="M62.3854,30.2656a.1308.1308,0,0,1-.0235.0791.1832.1832,0,0,1-.0762.0557.5384.5384,0,0,1-.1464.0352,2.0083,2.0083,0,0,1-.24.0117,1.9455,1.9455,0,0,1-.2343-.0117.5856.5856,0,0,1-.15-.0352.16.16,0,0,1-.0761-.0557.1439.1439,0,0,1-.0205-.0791V22.4375a.16.16,0,0,1,.0205-.082.1515.1515,0,0,1,.0761-.0586.5814.5814,0,0,1,.15-.0352,1.9455,1.9455,0,0,1,.2343-.0117,2.0083,2.0083,0,0,1,.24.0117.5347.5347,0,0,1,.1464.0352.1714.1714,0,0,1,.0762.0586.1446.1446,0,0,1,.0235.082Z"/><path d="M68.69,30.2656a.1439.1439,0,0,1-.02.0791.16.16,0,0,1-.0732.0557.5249.5249,0,0,1-.1377.0352,1.5592,1.5592,0,0,1-.208.0117,1.6685,1.6685,0,0,1-.22-.0117.48.48,0,0,1-.1348-.0352.1415.1415,0,0,1-.0674-.0557.1632.1632,0,0,1-.0176-.0791v-.6972a3.2823,3.2823,0,0,1-.8906.7265,1.9111,1.9111,0,0,1-.8906.2285,2.0139,2.0139,0,0,1-.8877-.1757,1.56,1.56,0,0,1-.583-.4776,1.93,1.93,0,0,1-.3194-.7031,4.2321,4.2321,0,0,1-.0966-.9756V24.9922a.1441.1441,0,0,1,.0205-.0791.1766.1766,0,0,1,.0791-.0586.4865.4865,0,0,1,.1523-.0352q.0938-.0087.2344-.0087t.2344.0087a.4542.4542,0,0,1,.1494.0352.2032.2032,0,0,1,.0791.0586.1309.1309,0,0,1,.0234.0791v3.07a3.2688,3.2688,0,0,0,.0674.7412,1.3845,1.3845,0,0,0,.2051.4746.9506.9506,0,0,0,.3486.3047,1.0623,1.0623,0,0,0,.4922.1084,1.2367,1.2367,0,0,0,.7236-.2578,4.1081,4.1081,0,0,0,.7647-.7559V24.9922a.1441.1441,0,0,1,.02-.0791.1772.1772,0,0,1,.0791-.0586.4812.4812,0,0,1,.1494-.0352q.0909-.0087.2373-.0087.1407,0,.2344.0087a.4237.4237,0,0,1,.1465.0352.2391.2391,0,0,1,.0791.0586.1206.1206,0,0,1,.0263.0791Z"/><path d="M78.2994,30.2656a.1307.1307,0,0,1-.0234.0791A.1832.1832,0,0,1,78.2,30.4a.5392.5392,0,0,1-.1465.0352,1.9455,1.9455,0,0,1-.2343.0117,2.0083,2.0083,0,0,1-.24-.0117.5847.5847,0,0,1-.1494-.0352.1825.1825,0,0,1-.0791-.0557.1307.1307,0,0,1-.0234-.0791v-3.205a2.9378,2.9378,0,0,0-.0586-.6094,1.4047,1.4047,0,0,0-.1875-.4746.8747.8747,0,0,0-.3282-.3047.988.988,0,0,0-.4687-.1055,1.1038,1.1038,0,0,0-.6709.2578,4.6336,4.6336,0,0,0-.7412.7559v3.6855a.13.13,0,0,1-.0235.0791.1819.1819,0,0,1-.0791.0557.5847.5847,0,0,1-.1494.0352,2.3238,2.3238,0,0,1-.4658,0,.5908.5908,0,0,1-.1523-.0352.1611.1611,0,0,1-.0762-.0557.1439.1439,0,0,1-.02-.0791v-3.205a2.6744,2.6744,0,0,0-.0645-.6094,1.4921,1.4921,0,0,0-.1933-.4746.8824.8824,0,0,0-.3252-.3047.9711.9711,0,0,0-.4658-.1055,1.1161,1.1161,0,0,0-.6739.2578,4.407,4.407,0,0,0-.7382.7559v3.6855a.1308.1308,0,0,1-.0235.0791.1832.1832,0,0,1-.0762.0557.5384.5384,0,0,1-.1464.0352,2.0083,2.0083,0,0,1-.24.0117,1.9473,1.9473,0,0,1-.2344-.0117.5847.5847,0,0,1-.1494-.0352.16.16,0,0,1-.0761-.0557.1439.1439,0,0,1-.02-.0791V24.9922a.1634.1634,0,0,1,.0175-.0791.1568.1568,0,0,1,.07-.0586.3984.3984,0,0,1,.1348-.0352,2.1485,2.1485,0,0,1,.2168-.0087q.1288,0,.2139.0087a.346.346,0,0,1,.1318.0352.1848.1848,0,0,1,.0674.0586.1441.1441,0,0,1,.02.0791V25.69a3.4233,3.4233,0,0,1,.8643-.7295,1.7344,1.7344,0,0,1,.8466-.2315,2.0988,2.0988,0,0,1,.5889.0762,1.5839,1.5839,0,0,1,.46.2139,1.4269,1.4269,0,0,1,.34.3281,1.8931,1.8931,0,0,1,.2344.4248,5.4423,5.4423,0,0,1,.501-.4863,2.9964,2.9964,0,0,1,.457-.3223,1.87,1.87,0,0,1,.4277-.1787,1.6147,1.6147,0,0,1,.419-.0557,1.849,1.849,0,0,1,.8554.1787,1.5518,1.5518,0,0,1,.56.4776,1.9126,1.9126,0,0,1,.3047.7,3.83,3.83,0,0,1,.0908.8467Z"/><path d="M84.6041,30.2656a.1307.1307,0,0,1-.0234.0791.1839.1839,0,0,1-.0762.0557.54.54,0,0,1-.1465.0352,1.9462,1.9462,0,0,1-.2344.0117,2.0076,2.0076,0,0,1-.24-.0117.54.54,0,0,1-.1465-.0352.1846.1846,0,0,1-.0762-.0557.1307.1307,0,0,1-.0234-.0791V27.1777a3.0344,3.0344,0,0,0-.07-.7265,1.5029,1.5029,0,0,0-.2051-.4746.8888.8888,0,0,0-.3486-.3047,1.1062,1.1062,0,0,0-.4951-.1055,1.25,1.25,0,0,0-.7266.2578,3.9371,3.9371,0,0,0-.7617.7559v3.6855a.1307.1307,0,0,1-.0234.0791A.1846.1846,0,0,1,80.93,30.4a.54.54,0,0,1-.1465.0352,2.0076,2.0076,0,0,1-.24.0117,1.9462,1.9462,0,0,1-.2344-.0117A.5847.5847,0,0,1,80.16,30.4a.1611.1611,0,0,1-.0762-.0557.1439.1439,0,0,1-.02-.0791V24.9922a.1634.1634,0,0,1,.0176-.0791.1557.1557,0,0,1,.07-.0586.3978.3978,0,0,1,.1347-.0352,2.1485,2.1485,0,0,1,.2168-.0087q.129,0,.2139.0087a.3454.3454,0,0,1,.1318.0352.1839.1839,0,0,1,.0674.0586.1441.1441,0,0,1,.02.0791V25.69a3.2412,3.2412,0,0,1,.8877-.7295,1.91,1.91,0,0,1,.8936-.2315,1.9866,1.9866,0,0,1,.8877.1787,1.5988,1.5988,0,0,1,.583.4776,1.9019,1.9019,0,0,1,.3193.7,4.1646,4.1646,0,0,1,.0967.9638Z"/><path d="M95.0221,26.51a5.3083,5.3083,0,0,1-.252,1.72,3.1236,3.1236,0,0,1-.7353,1.2188,3.0394,3.0394,0,0,1-1.1866.7236,5.2023,5.2023,0,0,1-1.6757.24H89.567a.416.416,0,0,1-.2549-.0908.3765.3765,0,0,1-.12-.3193V23.24a.3766.3766,0,0,1,.12-.3193.416.416,0,0,1,.2549-.0908h1.7168a4.7639,4.7639,0,0,1,1.6641.2549,3.0332,3.0332,0,0,1,1.14.7324,3.13,3.13,0,0,1,.6973,1.1572A4.64,4.64,0,0,1,95.0221,26.51Zm-1.0606.041a4.1353,4.1353,0,0,0-.1523-1.1455,2.46,2.46,0,0,0-.4776-.917,2.2067,2.2067,0,0,0-.8232-.6035,3.24,3.24,0,0,0-1.2832-.2168H90.2v5.9h1.0371a3.5975,3.5975,0,0,0,1.2246-.1817,2.02,2.02,0,0,0,.8321-.5566,2.4222,2.4222,0,0,0,.5009-.94A4.7539,4.7539,0,0,0,93.9615,26.5508Z"/><path d="M100.4361,30.2715a.1236.1236,0,0,1-.0468.1055.33.33,0,0,1-.1289.0527,1.231,1.231,0,0,1-.24.0176,1.3358,1.3358,0,0,1-.2431-.0176.2889.2889,0,0,1-.1319-.0527.1315.1315,0,0,1-.041-.1055v-.5273a2.6052,2.6052,0,0,1-.77.5742,2.0429,2.0429,0,0,1-.8994.205,2.4525,2.4525,0,0,1-.7529-.1083,1.63,1.63,0,0,1-.5743-.3135,1.4062,1.4062,0,0,1-.3691-.5039,1.6682,1.6682,0,0,1-.1318-.68,1.5725,1.5725,0,0,1,.1816-.7735,1.5112,1.5112,0,0,1,.5215-.5449,2.5632,2.5632,0,0,1,.832-.3252,5.1707,5.1707,0,0,1,1.1074-.1084h.7266v-.41a2.0383,2.0383,0,0,0-.0645-.5391.9228.9228,0,0,0-.208-.39.8926.8926,0,0,0-.372-.2344,1.7359,1.7359,0,0,0-.5625-.0791,2.24,2.24,0,0,0-.6416.0849,3.4429,3.4429,0,0,0-.4981.1875q-.2139.1026-.3574.1875a.4927.4927,0,0,1-.2139.085.1445.1445,0,0,1-.082-.0234.2015.2015,0,0,1-.0615-.07.3619.3619,0,0,1-.0381-.12,1.2256,1.2256,0,0,1,.0088-.3925.3355.3355,0,0,1,.1-.1612,1.2731,1.2731,0,0,1,.2725-.1787,3.0063,3.0063,0,0,1,.4453-.1875,4.0429,4.0429,0,0,1,.5507-.1406,3.29,3.29,0,0,1,.6036-.0557,3.1676,3.1676,0,0,1,.9668.1289,1.5643,1.5643,0,0,1,.6445.378,1.4622,1.4622,0,0,1,.3574.6181,2.9941,2.9941,0,0,1,.1113.8614Zm-.9609-2.4082H98.649a3.117,3.117,0,0,0-.6914.0674,1.4235,1.4235,0,0,0-.4863.1992.8248.8248,0,0,0-.2842.3164.9507.9507,0,0,0-.0908.4248.85.85,0,0,0,.2607.6533,1.0288,1.0288,0,0,0,.73.2432,1.3572,1.3572,0,0,0,.7061-.1934,3.0407,3.0407,0,0,0,.6826-.5918Z"/><path d="M104.8424,29.8789a1.2287,1.2287,0,0,1-.0234.2695.3017.3017,0,0,1-.07.1465.4569.4569,0,0,1-.1406.0879,1.1458,1.1458,0,0,1-.2139.0674q-.12.0264-.2548.044a2.0861,2.0861,0,0,1-.27.0175,2.03,2.03,0,0,1-.7031-.1084,1.1357,1.1357,0,0,1-.4805-.3281,1.3515,1.3515,0,0,1-.2724-.5566,3.2715,3.2715,0,0,1-.085-.794v-3.082H101.59a.1582.1582,0,0,1-.1406-.0938.6548.6548,0,0,1-.0527-.3046,1.0187,1.0187,0,0,1,.0146-.1875.5405.5405,0,0,1,.0381-.126.1466.1466,0,0,1,.0615-.07.176.176,0,0,1,.085-.02h.7324v-1.254a.149.149,0,0,1,.02-.0761.1667.1667,0,0,1,.0762-.0615.5.5,0,0,1,.1494-.0381,1.9435,1.9435,0,0,1,.2344-.0118,2.0047,2.0047,0,0,1,.24.0118.4636.4636,0,0,1,.1465.0381.19.19,0,0,1,.0762.0615.1346.1346,0,0,1,.0234.0761V24.84h1.3535a.16.16,0,0,1,.0821.02.17.17,0,0,1,.0615.07.3992.3992,0,0,1,.0381.126,1.2622,1.2622,0,0,1,.0117.1875.6548.6548,0,0,1-.0527.3046.1583.1583,0,0,1-.1407.0938h-1.3535V28.584a1.676,1.676,0,0,0,.1611.8232.61.61,0,0,0,.5772.2784.9926.9926,0,0,0,.24-.0264q.1055-.0264.1875-.0557t.1407-.0556a.26.26,0,0,1,.1054-.0264.1136.1136,0,0,1,.0557.0146.0979.0979,0,0,1,.041.0557.67.67,0,0,1,.0264.1113A1.1,1.1,0,0,1,104.8424,29.8789Z"/><path d="M109.9459,30.2715a.1234.1234,0,0,1-.0469.1055.3287.3287,0,0,1-.1289.0527,1.23,1.23,0,0,1-.24.0176,1.337,1.337,0,0,1-.2432-.0176.2885.2885,0,0,1-.1318-.0527.1312.1312,0,0,1-.041-.1055v-.5273a2.6052,2.6052,0,0,1-.77.5742,2.0429,2.0429,0,0,1-.8994.205,2.4532,2.4532,0,0,1-.753-.1083,1.63,1.63,0,0,1-.5742-.3135,1.4062,1.4062,0,0,1-.3691-.5039,1.6682,1.6682,0,0,1-.1319-.68,1.5725,1.5725,0,0,1,.1817-.7735,1.5112,1.5112,0,0,1,.5215-.5449,2.5632,2.5632,0,0,1,.832-.3252,5.17,5.17,0,0,1,1.1074-.1084h.7266v-.41a2.0383,2.0383,0,0,0-.0645-.5391.9239.9239,0,0,0-.208-.39.8923.8923,0,0,0-.3721-.2344,1.735,1.735,0,0,0-.5625-.0791,2.2407,2.2407,0,0,0-.6416.0849,3.4459,3.4459,0,0,0-.498.1875q-.2139.1026-.3574.1875a.4927.4927,0,0,1-.2139.085.1443.1443,0,0,1-.082-.0234.2007.2007,0,0,1-.0616-.07.3643.3643,0,0,1-.038-.12,1.0117,1.0117,0,0,1-.0118-.1611,1.0335,1.0335,0,0,1,.02-.2314.335.335,0,0,1,.1-.1612,1.2745,1.2745,0,0,1,.2724-.1787,3.0108,3.0108,0,0,1,.4453-.1875,4.0483,4.0483,0,0,1,.5508-.1406,3.2894,3.2894,0,0,1,.6035-.0557,3.1672,3.1672,0,0,1,.9668.1289,1.5647,1.5647,0,0,1,.6446.378,1.4633,1.4633,0,0,1,.3574.6181,2.9941,2.9941,0,0,1,.1113.8614Zm-.9609-2.4082h-.8262a3.117,3.117,0,0,0-.6914.0674,1.4235,1.4235,0,0,0-.4863.1992.824.824,0,0,0-.2842.3164.9493.9493,0,0,0-.0908.4248.85.85,0,0,0,.2607.6533,1.0286,1.0286,0,0,0,.73.2432,1.3566,1.3566,0,0,0,.706-.1934,3.041,3.041,0,0,0,.6827-.5918Z"/><polyline class="cls-3" points="193.478 34.827 198.228 27.92 205.301 27.92"/><line class="cls-3" x1="228.6769" y1="99.2835" x2="243.6733" y2="99.2835"/><polyline class="cls-3" points="187.109 159.568 192.186 167.438 199.746 167.438"/><polyline class="cls-3" points="103.004 139.616 98.298 150.763 91.291 150.763"/><polyline class="cls-3" points="126.753 31.374 123.1 26.822 117.66 26.822"/><line class="cls-3" x1="77.2715" y1="67.2976" x2="92.6676" y2="67.2976"/></svg>